<?xml version="1.0" encoding="UTF-8" standalone="no"?>
<!-- Created with Inkscape (http://www.inkscape.org/) -->

<svg
   width="100"
   height="100"
   viewBox="0 0 1041666.6 1041666.6"
   version="1.1"
   id="svg1"
   sodipodi:docname="button6.svg"
   inkscape:version="1.4 (e7c3feb1, 2024-10-09)"
   xml:space="preserve"
   inkscape:export-filename="Test1.png"
   inkscape:export-xdpi="83.842796"
   inkscape:export-ydpi="83.842796"
   xmlns:inkscape="http://www.inkscape.org/namespaces/inkscape"
   xmlns:sodipodi="http://sodipodi.sourceforge.net/DTD/sodipodi-0.dtd"
   xmlns="http://www.w3.org/2000/svg"
   xmlns:svg="http://www.w3.org/2000/svg"><sodipodi:namedview
     id="namedview1"
     pagecolor="#ffffff"
     bordercolor="#000000"
     borderopacity="0.25"
     inkscape:showpageshadow="2"
     inkscape:pageopacity="0.0"
     inkscape:pagecheckerboard="0"
     inkscape:deskcolor="#d1d1d1"
     inkscape:document-units="px"
     inkscape:zoom="8"
     inkscape:cx="58.6875"
     inkscape:cy="57.5625"
     inkscape:window-width="1200"
     inkscape:window-height="750"
     inkscape:window-x="106"
     inkscape:window-y="25"
     inkscape:window-maximized="0"
     inkscape:current-layer="g1"
     showguides="false"
     showgrid="true"><inkscape:grid
       id="grid128"
       units="px"
       originx="0"
       originy="0"
       spacingx="10416.666"
       spacingy="10416.666"
       empcolor="#0099e5"
       empopacity="0.30196078"
       color="#0099e5"
       opacity="0.14901961"
       empspacing="5"
       enabled="true"
       visible="true" /></sodipodi:namedview><defs
     id="defs1"><inkscape:path-effect
       effect="bspline"
       id="path-effect7"
       is_visible="true"
       lpeversion="1.3"
       weight="33.333333"
       steps="2"
       helper_size="0"
       apply_no_weight="true"
       apply_with_weight="true"
       only_selected="false"
       uniform="false" /></defs><g
     inkscape:label="Background"
     inkscape:groupmode="layer"
     id="layer1"
     transform="translate(-2010416.6,802083.27)"
     style="display:inline" /><g
     id="g1"
     inkscape:label="Button"><path
       d="M 520833.47,520833.3 V 531250 h -5208.3 -5208.4 v -10416.7 h 5208.4 z"
       style="display:inline;stroke-width:1811.6"
       id="path3" /><path
       d="m 520833.47,510416.63 v 10416.7 h -5208.3 -5208.4 v -10416.7 h 5208.4 z"
       style="display:inline;stroke-width:1811.6"
       id="path4" /><path
       d="m 510416.8,499999.97 v 10416.7 h -5208.3 -5208.4 v -10416.7 h 5208.4 z"
       style="display:inline;stroke-width:1811.6"
       id="path5" /><path
       d="m 520833.5,489583.27 v 10416.7 h -5208.3 -5208.4 v -10416.7 h 5208.4 z"
       style="display:inline;stroke-width:1811.6"
       id="path6" /><path
       d="m 520833.43,479166.64 v 10416.7 h -5208.3 -5208.4 v -10416.7 h 5208.4 z"
       style="display:inline;stroke-width:1811.6"
       id="path7" /><path
       d="m 510416.8,468749.97 v 10416.7 h -5208.3 -5208.4 v -10416.7 h 5208.4 z"
       style="display:inline;stroke-width:1811.6"
       id="path8" /><path
       d="M 500000.14,458333.3 V 468750 h -5208.3 -5208.4 v -10416.7 h 5208.4 z"
       style="display:inline;stroke-width:1811.6"
       id="path9" /><path
       d="M 489583.44,458333.3 V 468750 h -5208.3 -5208.4 v -10416.7 h 5208.4 z"
       style="display:inline;stroke-width:1811.6"
       id="path10" /><path
       d="m 500000.1,510416.67 v 10416.7 h -5208.3 -5208.4 v -10416.7 h 5208.4 z"
       style="display:inline;stroke-width:1811.6"
       id="path11" /><path
       d="m 489583.4,510416.67 v 10416.7 h -5208.3 -5208.4 v -10416.7 h 5208.4 z"
       style="display:inline;stroke-width:1811.6"
       id="path12" /><path
       d="m 479166.7,510416.67 v 10416.7 h -5208.3 -5208.4 v -10416.7 h 5208.4 z"
       style="display:inline;stroke-width:1811.6"
       id="path13" /><path
       d="M 479166.74,458333.3 V 468750 h -5208.3 -5208.4 v -10416.7 h 5208.4 z"
       style="display:inline;stroke-width:1811.6"
       id="path14" /><path
       d="m 468750.04,468750 v 10416.7 h -5208.3 -5208.4 V 468750 h 5208.4 z"
       style="display:inline;stroke-width:1811.6"
       id="path15" /><path
       d="m 468750,499999.97 v 10416.7 h -5208.3 -5208.4 v -10416.7 h 5208.4 z"
       style="display:inline;stroke-width:1811.6"
       id="path16" /><path
       d="m 458333.34,479166.7 v 10416.7 h -5208.3 -5208.4 v -10416.7 h 5208.4 z"
       style="display:inline;stroke-width:1811.6"
       id="path17" /><path
       d="m 458333.34,489583.4 v 10416.7 h -5208.3 -5208.4 v -10416.7 h 5208.4 z"
       style="display:inline;stroke-width:1811.6"
       id="path18" /><path
       d="m 447916.64,479166.7 v 10416.7 h -5208.3 -5208.4 v -10416.7 h 5208.4 z"
       style="display:inline;stroke-width:1811.6"
       id="path19" /><path
       d="m 520833.5,499999.97 v 10416.7 h -5208.3 -5208.4 v -10416.7 h 5208.4 z"
       style="display:inline;stroke-width:1811.6"
       id="path20" /><path
       d="m 479166.8,499999.97 v 10416.7 h -5208.3 -5208.4 v -10416.7 h 5208.4 z"
       style="display:inline;fill:#005700;fill-opacity:1;stroke-width:1811.6"
       id="path66" /><path
       d="M 500000.14,489583.3 V 500000 h -5208.3 -5208.4 v -10416.7 h 5208.4 z"
       style="display:inline;fill:#005700;fill-opacity:1;stroke-width:1811.6"
       id="path67" /><path
       d="m 489583.44,479166.6 v 10416.7 h -5208.3 -5208.4 v -10416.7 h 5208.4 z"
       style="display:inline;fill:#005700;fill-opacity:1;stroke-width:1811.6"
       id="path51" /><path
       d="m 479166.74,479166.7 v 10416.7 h -5208.3 -5208.4 v -10416.7 h 5208.4 z"
       style="display:inline;fill:#005700;fill-opacity:1;stroke-width:1811.6"
       id="path52" /><path
       d="M 510416.77,489583.3 V 500000 h -5208.3 -5208.4 v -10416.7 h 5208.4 z"
       style="display:inline;fill:#007200;fill-opacity:1;stroke-width:1811.6"
       id="path53" /><path
       d="m 500000.1,479166.67 v 10416.7 h -5208.3 -5208.4 v -10416.7 h 5208.4 z"
       style="display:inline;fill:#007200;fill-opacity:1;stroke-width:1811.6"
       id="path54" /><path
       d="m 489583.4,489583.37 v 10416.7 h -5208.3 -5208.4 v -10416.7 h 5208.4 z"
       style="display:inline;fill:#007200;fill-opacity:1;stroke-width:1811.6"
       id="path56" /><path
       d="m 500000.1,499999.97 v 10416.7 h -5208.3 -5208.4 v -10416.7 h 5208.4 z"
       style="display:inline;fill:#007200;fill-opacity:1;stroke-width:1811.6"
       id="path57" /><path
       d="m 489583.4,500000.07 v 10416.7 h -5208.3 -5208.4 v -10416.7 h 5208.4 z"
       style="display:inline;fill:#007200;fill-opacity:1;stroke-width:1811.6"
       id="path58" /><path
       d="M 479166.77,489583.3 V 500000 h -5208.3 -5208.4 v -10416.7 h 5208.4 z"
       style="display:inline;fill:#007200;fill-opacity:1;stroke-width:1811.6"
       id="path68" /><path
       d="m 510416.77,479166.64 v 10416.7 h -5208.3 -5208.4 v -10416.7 h 5208.4 z"
       style="display:inline;fill:#007200;fill-opacity:1;stroke-width:1811.6"
       id="path70" /><path
       d="m 520833.47,552083.33 v 10416.7 h -5208.3 -5208.4 v -10416.7 h 5208.4 z"
       style="display:inline;fill:#b660ff;fill-opacity:1;stroke-width:1811.6"
       id="path122" /><path
       d="m 531250.1,552083.33 v 10416.7 h -5208.3 -5208.4 v -10416.7 h 5208.4 z"
       style="display:inline;fill:#b660ff;fill-opacity:1;stroke-width:1811.6"
       id="path123" /><path
       d="m 510416.77,552083.33 v 10416.7 h -5208.3 -5208.4 v -10416.7 h 5208.4 z"
       style="display:inline;fill:#b660ff;fill-opacity:1;stroke-width:1811.6"
       id="path124" /><path
       d="m 520833.47,562500.03 v 10416.7 h -5208.3 -5208.4 v -10416.7 h 5208.4 z"
       style="display:inline;fill:#b660ff;fill-opacity:1;stroke-width:1811.6"
       id="path125" /><path
       d="m 520833.29,593749.9 v 10416.7 h -5208.3 -5208.4 v -10416.7 h 5208.4 z"
       style="display:inline;fill:#b660ff;fill-opacity:1;stroke-width:1811.6"
       id="path126" /><path
       d="M 531250.1,583333.3 V 593750 h -5208.3 -5208.4 v -10416.7 h 5208.4 z"
       style="display:inline;fill:#b660ff;fill-opacity:1;stroke-width:1811.6"
       id="path127" /><path
       d="m 510416.7,583333.23 v 10416.7 h -5208.3 -5208.4 v -10416.7 h 5208.4 z"
       style="display:inline;fill:#b660ff;fill-opacity:1;stroke-width:1811.6"
       id="path128" /><path
       d="m 541666.73,572916.63 v 10416.7 h -5208.3 -5208.4 v -10416.7 h 5208.4 z"
       style="display:inline;fill:#b660ff;fill-opacity:1;stroke-width:1811.6"
       id="path129" /><path
       d="m 500000.17,572916.56 v 10416.7 h -5208.3 -5208.4 v -10416.7 h 5208.4 z"
       style="display:inline;fill:#b660ff;fill-opacity:1;stroke-width:1811.6"
       id="path130" /><path
       d="m 593750.1,593749.93 v 10416.7 h -5208.3 -5208.4 v -10416.7 h 5208.4 z"
       style="display:inline;fill:#b660ff;fill-opacity:1;stroke-width:1811.6"
       id="path144" /><path
       d="m 604166.76,604166.56 v 10416.7 h -5208.3 -5208.4 v -10416.7 h 5208.4 z"
       style="display:inline;fill:#b660ff;fill-opacity:1;stroke-width:1811.6"
       id="path145" /><path
       d="m 593750.1,614583.33 v 10416.7 h -5208.3 -5208.4 v -10416.7 h 5208.4 z"
       style="display:inline;fill:#b660ff;fill-opacity:1;stroke-width:1811.6"
       id="path146" /><path
       d="m 583333.4,624999.96 v 10416.7 h -5208.3 -5208.4 v -10416.7 h 5208.4 z"
       style="display:inline;fill:#b660ff;fill-opacity:1;stroke-width:1811.6"
       id="path147" /><path
       d="M 583333.4,583333.3 V 593750 h -5208.3 -5208.4 v -10416.7 h 5208.4 z"
       style="display:inline;fill:#b660ff;fill-opacity:1;stroke-width:1811.6"
       id="path148" /><path
       d="m 520833.47,541666.63 v 10416.7 h -5208.3 -5208.4 v -10416.7 h 5208.4 z"
       style="display:inline;fill:#9d2aff;fill-opacity:1;stroke-width:1811.6"
       id="path116" /><path
       d="m 520833.36,604166.6 v 10416.7 h -5208.3 -5208.4 v -10416.7 h 5208.4 z"
       style="display:inline;fill:#9d2aff;fill-opacity:1;stroke-width:1811.6"
       id="path117" /><path
       d="m 531249.99,593749.9 v 10416.7 h -5208.3 -5208.4 v -10416.7 h 5208.4 z"
       style="display:inline;fill:#9d2aff;fill-opacity:1;stroke-width:1811.6"
       id="path118" /><path
       d="m 510416.7,593749.93 v 10416.7 h -5208.3 -5208.4 v -10416.7 h 5208.4 z"
       style="display:inline;fill:#9d2aff;fill-opacity:1;stroke-width:1811.6"
       id="path119" /><path
       d="M 541666.8,583333.3 V 593750 h -5208.3 -5208.4 v -10416.7 h 5208.4 z"
       style="display:inline;fill:#9d2aff;fill-opacity:1;stroke-width:1811.6"
       id="path120" /><path
       d="m 500000.17,583333.26 v 10416.7 h -5208.3 -5208.4 v -10416.7 h 5208.4 z"
       style="display:inline;fill:#9d2aff;fill-opacity:1;stroke-width:1811.6"
       id="path121" /><path
       d="m 572916.73,624999.93 v 10416.7 h -5208.3 -5208.4 v -10416.7 h 5208.4 z"
       style="display:inline;fill:#9d2aff;fill-opacity:1;stroke-width:1811.6"
       id="path139" /><path
       d="m 572916.73,583333.26 v 10416.7 h -5208.3 -5208.4 v -10416.7 h 5208.4 z"
       style="display:inline;fill:#9d2aff;fill-opacity:1;stroke-width:1811.6"
       id="path140" /><path
       d="m 583333.4,614583.26 v 10416.7 h -5208.3 -5208.4 v -10416.7 h 5208.4 z"
       style="display:inline;fill:#9d2aff;fill-opacity:1;stroke-width:1811.6"
       id="path141" /><path
       d="m 583333.4,593749.93 v 10416.7 h -5208.3 -5208.4 v -10416.7 h 5208.4 z"
       style="display:inline;fill:#9d2aff;fill-opacity:1;stroke-width:1811.6"
       id="path142" /><path
       d="m 593750.1,604166.63 v 10416.7 h -5208.3 -5208.4 v -10416.7 h 5208.4 z"
       style="display:inline;fill:#9d2aff;fill-opacity:1;stroke-width:1811.6"
       id="path143" /><path
       d="m 541666.77,562500 v 10416.7 h -5208.3 -5208.4 V 562500 h 5208.4 z"
       style="display:inline;fill:#c681ff;fill-opacity:1;stroke-width:1811.6"
       id="path131" /><path
       d="m 531250.1,562500.03 v 10416.7 h -5208.3 -5208.4 v -10416.7 h 5208.4 z"
       style="display:inline;fill:#c681ff;fill-opacity:1;stroke-width:1811.6"
       id="path132" /><path
       d="m 531250.1,572916.73 v 10416.7 h -5208.3 -5208.4 v -10416.7 h 5208.4 z"
       style="display:inline;fill:#c681ff;fill-opacity:1;stroke-width:1811.6"
       id="path133" /><path
       d="m 520833.47,572916.73 v 10416.7 h -5208.3 -5208.4 v -10416.7 h 5208.4 z"
       style="display:inline;fill:#c681ff;fill-opacity:1;stroke-width:1811.6"
       id="path134" /><path
       d="m 520833.47,583333.43 v 10416.7 h -5208.3 -5208.4 v -10416.7 h 5208.4 z"
       style="display:inline;fill:#c681ff;fill-opacity:1;stroke-width:1811.6"
       id="path135" /><path
       d="m 510416.77,572916.63 v 10416.7 h -5208.3 -5208.4 v -10416.7 h 5208.4 z"
       style="display:inline;fill:#c681ff;fill-opacity:1;stroke-width:1811.6"
       id="path136" /><path
       d="m 510416.77,562500.03 v 10416.7 h -5208.3 -5208.4 v -10416.7 h 5208.4 z"
       style="display:inline;fill:#c681ff;fill-opacity:1;stroke-width:1811.6"
       id="path137" /><path
       d="m 500000.07,562500.03 v 10416.7 h -5208.3 -5208.4 v -10416.7 h 5208.4 z"
       style="display:inline;fill:#c681ff;fill-opacity:1;stroke-width:1811.6"
       id="path138" /><path
       d="m 593750.1,624999.96 v 10416.7 h -5208.3 -5208.4 v -10416.7 h 5208.4 z"
       style="display:inline;fill:#c681ff;fill-opacity:1;stroke-width:1811.6"
       id="path149" /><path
       d="m 604166.76,614583.29 v 10416.7 h -5208.3 -5208.4 v -10416.7 h 5208.4 z"
       style="display:inline;fill:#c681ff;fill-opacity:1;stroke-width:1811.6"
       id="path150" /><path
       d="m 614583.46,604166.56 v 10416.7 h -5208.3 -5208.4 v -10416.7 h 5208.4 z"
       style="display:inline;fill:#c681ff;fill-opacity:1;stroke-width:1811.6"
       id="path151" /><path
       d="m 604166.76,593749.96 v 10416.7 h -5208.3 -5208.4 v -10416.7 h 5208.4 z"
       style="display:inline;fill:#c681ff;fill-opacity:1;stroke-width:1811.6"
       id="path152" /><path
       d="m 593750.1,583333.23 v 10416.7 h -5208.3 -5208.4 v -10416.7 h 5208.4 z"
       style="display:inline;fill:#c681ff;fill-opacity:1;stroke-width:1811.6"
       id="path80" /><path
       d="m 468750.04,489583.4 v 10416.7 h -5208.3 -5208.4 v -10416.7 h 5208.4 z"
       style="display:inline;fill:#007200;fill-opacity:1;stroke-width:1811.6"
       id="path60" /><path
       d="m 500000.14,468750 v 10416.7 h -5208.3 -5208.4 V 468750 h 5208.4 z"
       style="display:inline;fill:#00a300;fill-opacity:1;stroke-width:1811.6"
       id="path62" /><path
       d="m 479166.77,468749.97 v 10416.7 h -5208.3 -5208.4 v -10416.7 h 5208.4 z"
       style="display:inline;fill:#00a300;fill-opacity:1;stroke-width:1811.6"
       id="path63" /><path
       d="m 468750.1,479166.64 v 10416.7 h -5208.3 -5208.4 v -10416.7 h 5208.4 z"
       style="display:inline;fill:#00a300;fill-opacity:1;stroke-width:1811.6"
       id="path64" /><path
       d="m 489583.44,468750 v 10416.7 h -5208.3 -5208.4 V 468750 h 5208.4 z"
       style="display:inline;fill:#00a300;fill-opacity:1;stroke-width:1811.6"
       id="path69" /><path
       d="m 489583.47,572916.63 v 10416.7 h -5208.3 -5208.4 v -10416.7 h 5208.4 z"
       style="display:inline;stroke-width:1811.6"
       id="path76" /><path
       d="m 489583.47,562499.96 v 10416.7 h -5208.3 -5208.4 v -10416.7 h 5208.4 z"
       style="display:inline;stroke-width:1811.6"
       id="path77" /><path
       d="M 541666.77,552083.3 V 562500 h -5208.3 -5208.4 v -10416.7 h 5208.4 z"
       style="display:inline;stroke-width:1811.6"
       id="path102" /><path
       d="M 500000.1,552083.3 V 562500 h -5208.3 -5208.4 v -10416.7 h 5208.4 z"
       style="display:inline;stroke-width:1811.6"
       id="path103" /><path
       d="m 531250.1,541666.63 v 10416.7 h -5208.3 -5208.4 v -10416.7 h 5208.4 z"
       style="display:inline;stroke-width:1811.6"
       id="path104" /><path
       d="m 510416.77,541666.63 v 10416.7 h -5208.3 -5208.4 v -10416.7 h 5208.4 z"
       style="display:inline;stroke-width:1811.6"
       id="path105" /><path
       d="m 520833.43,531249.97 v 10416.7 h -5208.3 -5208.4 v -10416.7 h 5208.4 z"
       style="display:inline;stroke-width:1811.6"
       id="path78" /><path
       d="m 552083.47,562499.96 v 10416.7 h -5208.3 -5208.4 v -10416.7 h 5208.4 z"
       style="display:inline;stroke-width:1811.6"
       id="path79" /><path
       d="m 552083.43,572916.63 v 10416.7 h -5208.3 -5208.4 v -10416.7 h 5208.4 z"
       style="display:inline;stroke-width:1811.6"
       id="path84" /><path
       d="M 552083.43,583333.3 V 593750 h -5208.3 -5208.4 v -10416.7 h 5208.4 z"
       style="display:inline;stroke-width:1811.6"
       id="path85" /><path
       d="m 489583.47,583333.26 v 10416.7 h -5208.3 -5208.4 v -10416.7 h 5208.4 z"
       style="display:inline;stroke-width:1811.6"
       id="path89" /><path
       d="m 500000,593749.93 v 10416.7 h -5208.3 -5208.4 v -10416.7 h 5208.4 z"
       style="display:inline;stroke-width:1811.6"
       id="path90" /><path
       d="m 510416.66,604166.6 v 10416.7 h -5208.3 -5208.4 v -10416.7 h 5208.4 z"
       style="display:inline;stroke-width:1811.6"
       id="path91" /><path
       d="m 520833.33,614583.33 v 10416.7 h -5208.3 -5208.4 v -10416.7 h 5208.4 z"
       style="display:inline;stroke-width:1811.6"
       id="path92" /><path
       d="m 531249.99,604166.6 v 10416.7 h -5208.3 -5208.4 v -10416.7 h 5208.4 z"
       style="display:inline;stroke-width:1811.6"
       id="path93" /><path
       d="m 541666.66,593749.93 v 10416.7 h -5208.3 -5208.4 v -10416.7 h 5208.4 z"
       style="display:inline;stroke-width:1811.6"
       id="path94" /></g></svg>
