<?xml version="1.0" encoding="UTF-8" standalone="no"?>
<!-- Created with Inkscape (http://www.inkscape.org/) -->

<svg
   width="100"
   height="100"
   viewBox="0 0 1041666.6 1041666.6"
   version="1.1"
   id="svg1"
   sodipodi:docname="button8.svg"
   inkscape:version="1.4 (e7c3feb1, 2024-10-09)"
   xml:space="preserve"
   inkscape:export-filename="Test1.png"
   inkscape:export-xdpi="83.842796"
   inkscape:export-ydpi="83.842796"
   xmlns:inkscape="http://www.inkscape.org/namespaces/inkscape"
   xmlns:sodipodi="http://sodipodi.sourceforge.net/DTD/sodipodi-0.dtd"
   xmlns="http://www.w3.org/2000/svg"
   xmlns:svg="http://www.w3.org/2000/svg"><sodipodi:namedview
     id="namedview1"
     pagecolor="#ffffff"
     bordercolor="#000000"
     borderopacity="0.25"
     inkscape:showpageshadow="2"
     inkscape:pageopacity="0.0"
     inkscape:pagecheckerboard="0"
     inkscape:deskcolor="#d1d1d1"
     inkscape:document-units="px"
     inkscape:zoom="5.6568543"
     inkscape:cx="38.448931"
     inkscape:cy="51.530406"
     inkscape:window-width="1200"
     inkscape:window-height="750"
     inkscape:window-x="127"
     inkscape:window-y="25"
     inkscape:window-maximized="0"
     inkscape:current-layer="g1"
     showguides="false"
     showgrid="true"><inkscape:grid
       id="grid128"
       units="px"
       originx="0"
       originy="0"
       spacingx="10416.666"
       spacingy="10416.666"
       empcolor="#0099e5"
       empopacity="0.30196078"
       color="#0099e5"
       opacity="0.14901961"
       empspacing="5"
       enabled="true"
       visible="true" /></sodipodi:namedview><defs
     id="defs1"><inkscape:path-effect
       effect="bspline"
       id="path-effect7"
       is_visible="true"
       lpeversion="1.3"
       weight="33.333333"
       steps="2"
       helper_size="0"
       apply_no_weight="true"
       apply_with_weight="true"
       only_selected="false"
       uniform="false" /></defs><g
     inkscape:label="Background"
     inkscape:groupmode="layer"
     id="layer1"
     transform="translate(-2010416.6,802083.27)"
     style="display:inline" /><g
     id="g1"
     inkscape:label="Button"><path
       d="M 520833.5,520833.3 V 531250 h -5208.3 -5208.4 v -10416.7 h 5208.4 z"
       style="display:inline;stroke-width:1811.6"
       id="path3" /><path
       d="m 520833.5,510416.63 v 10416.7 h -5208.3 -5208.4 v -10416.7 h 5208.4 z"
       style="display:inline;stroke-width:1811.6"
       id="path4" /><path
       d="m 510416.83,499999.97 v 10416.7 h -5208.3 -5208.4 v -10416.7 h 5208.4 z"
       style="display:inline;stroke-width:1811.6"
       id="path5" /><path
       d="m 520833.53,489583.27 v 10416.7 h -5208.3 -5208.4 v -10416.7 h 5208.4 z"
       style="display:inline;stroke-width:1811.6"
       id="path6" /><path
       d="m 520833.46,479166.64 v 10416.7 h -5208.3 -5208.4 v -10416.7 h 5208.4 z"
       style="display:inline;stroke-width:1811.6"
       id="path7" /><path
       d="m 510416.83,468749.97 v 10416.7 h -5208.3 -5208.4 v -10416.7 h 5208.4 z"
       style="display:inline;stroke-width:1811.6"
       id="path8" /><path
       d="M 500000.17,458333.3 V 468750 h -5208.3 -5208.4 v -10416.7 h 5208.4 z"
       style="display:inline;stroke-width:1811.6"
       id="path9" /><path
       d="M 489583.47,458333.3 V 468750 h -5208.3 -5208.4 v -10416.7 h 5208.4 z"
       style="display:inline;stroke-width:1811.6"
       id="path10" /><path
       d="m 500000.13,510416.67 v 10416.7 h -5208.3 -5208.4 v -10416.7 h 5208.4 z"
       style="display:inline;stroke-width:1811.6"
       id="path11" /><path
       d="m 489583.43,510416.67 v 10416.7 h -5208.3 -5208.4 v -10416.7 h 5208.4 z"
       style="display:inline;stroke-width:1811.6"
       id="path12" /><path
       d="m 479166.73,510416.67 v 10416.7 h -5208.3 -5208.4 v -10416.7 h 5208.4 z"
       style="display:inline;stroke-width:1811.6"
       id="path13" /><path
       d="M 479166.77,458333.3 V 468750 h -5208.3 -5208.4 v -10416.7 h 5208.4 z"
       style="display:inline;stroke-width:1811.6"
       id="path14" /><path
       d="m 468750.07,468750 v 10416.7 h -5208.3 -5208.4 V 468750 h 5208.4 z"
       style="display:inline;stroke-width:1811.6"
       id="path15" /><path
       d="m 468750.03,499999.97 v 10416.7 h -5208.3 -5208.4 v -10416.7 h 5208.4 z"
       style="display:inline;stroke-width:1811.6"
       id="path16" /><path
       d="m 458333.37,479166.7 v 10416.7 h -5208.3 -5208.4 v -10416.7 h 5208.4 z"
       style="display:inline;stroke-width:1811.6"
       id="path17" /><path
       d="m 458333.37,489583.4 v 10416.7 h -5208.3 -5208.4 v -10416.7 h 5208.4 z"
       style="display:inline;stroke-width:1811.6"
       id="path18" /><path
       d="m 447916.67,479166.7 v 10416.7 h -5208.3 -5208.4 v -10416.7 h 5208.4 z"
       style="display:inline;stroke-width:1811.6"
       id="path19" /><path
       d="m 520833.53,499999.97 v 10416.7 h -5208.3 -5208.4 v -10416.7 h 5208.4 z"
       style="display:inline;stroke-width:1811.6"
       id="path20" /><path
       d="m 479166.83,499999.97 v 10416.7 h -5208.3 -5208.4 v -10416.7 h 5208.4 z"
       style="display:inline;fill:#005700;fill-opacity:1;stroke-width:1811.6"
       id="path66" /><path
       d="M 500000.17,489583.3 V 500000 h -5208.3 -5208.4 v -10416.7 h 5208.4 z"
       style="display:inline;fill:#005700;fill-opacity:1;stroke-width:1811.6"
       id="path67" /><path
       d="m 489583.47,479166.6 v 10416.7 h -5208.3 -5208.4 v -10416.7 h 5208.4 z"
       style="display:inline;fill:#005700;fill-opacity:1;stroke-width:1811.6"
       id="path51" /><path
       d="m 479166.77,479166.7 v 10416.7 h -5208.3 -5208.4 v -10416.7 h 5208.4 z"
       style="display:inline;fill:#005700;fill-opacity:1;stroke-width:1811.6"
       id="path52" /><path
       d="M 510416.8,489583.3 V 500000 h -5208.3 -5208.4 v -10416.7 h 5208.4 z"
       style="display:inline;fill:#007200;fill-opacity:1;stroke-width:1811.6"
       id="path53" /><path
       d="m 500000.13,479166.67 v 10416.7 h -5208.3 -5208.4 v -10416.7 h 5208.4 z"
       style="display:inline;fill:#007200;fill-opacity:1;stroke-width:1811.6"
       id="path54" /><path
       d="m 489583.43,489583.37 v 10416.7 h -5208.3 -5208.4 v -10416.7 h 5208.4 z"
       style="display:inline;fill:#007200;fill-opacity:1;stroke-width:1811.6"
       id="path56" /><path
       d="m 500000.13,499999.97 v 10416.7 h -5208.3 -5208.4 v -10416.7 h 5208.4 z"
       style="display:inline;fill:#007200;fill-opacity:1;stroke-width:1811.6"
       id="path57" /><path
       d="m 489583.43,500000.07 v 10416.7 h -5208.3 -5208.4 v -10416.7 h 5208.4 z"
       style="display:inline;fill:#007200;fill-opacity:1;stroke-width:1811.6"
       id="path58" /><path
       d="M 479166.8,489583.3 V 500000 h -5208.3 -5208.4 v -10416.7 h 5208.4 z"
       style="display:inline;fill:#007200;fill-opacity:1;stroke-width:1811.6"
       id="path68" /><path
       d="m 510416.8,479166.64 v 10416.7 h -5208.3 -5208.4 v -10416.7 h 5208.4 z"
       style="display:inline;fill:#007200;fill-opacity:1;stroke-width:1811.6"
       id="path70" /><path
       d="m 614583.46,604166.63 v 10416.7 h -5208.3 -5208.4 v -10416.7 h 5208.4 z"
       style="display:inline;fill:#ffb380;fill-opacity:1;stroke-width:1811.6"
       id="path32" /><path
       d="m 604166.79,614583.36 v 10416.7 h -5208.3 -5208.4 v -10416.7 h 5208.4 z"
       style="display:inline;fill:#ffb380;fill-opacity:1;stroke-width:1811.6"
       id="path33" /><path
       d="m 604166.79,593749.96 v 10416.7 h -5208.3 -5208.4 v -10416.7 h 5208.4 z"
       style="display:inline;fill:#ffb380;fill-opacity:1;stroke-width:1811.6"
       id="path34" /><path
       d="m 593750.09,624999.99 v 10416.7 h -5208.3 -5208.4 v -10416.7 h 5208.4 z"
       style="display:inline;fill:#ffb380;fill-opacity:1;stroke-width:1811.6"
       id="path35" /><path
       d="M 593750.13,583333.3 V 593750 h -5208.3 -5208.4 v -10416.7 h 5208.4 z"
       style="display:inline;fill:#ffb380;fill-opacity:1;stroke-width:1811.6"
       id="path36" /><path
       d="m 520833.53,562500.06 v 10416.7 h -5208.3 -5208.4 v -10416.7 h 5208.4 z"
       style="display:inline;fill:#ffb380;fill-opacity:1;stroke-width:1811.6"
       id="path49" /><path
       d="m 531250.13,572916.62 v 10416.7 h -5208.3 -5208.4 v -10416.7 h 5208.4 z"
       style="display:inline;fill:#ffb380;fill-opacity:1;stroke-width:1811.6"
       id="path50" /><path
       d="m 510416.94,572916.6 v 10416.7 h -5208.3 -5208.4 v -10416.7 h 5208.4 z"
       style="display:inline;fill:#ffb380;fill-opacity:1;stroke-width:1811.6"
       id="path55" /><path
       d="m 520833.6,583333.23 v 10416.7 h -5208.3 -5208.4 v -10416.7 h 5208.4 z"
       style="display:inline;fill:#ffb380;fill-opacity:1;stroke-width:1811.6"
       id="path59" /><path
       d="m 520833.43,572916.62 v 10416.7 h -5208.3 -5208.4 v -10416.7 h 5208.4 z"
       style="display:inline;fill:#ffb380;fill-opacity:1;stroke-width:1811.6"
       id="path61" /><path
       d="m 583333.43,624999.96 v 10416.7 h -5208.3 -5208.4 v -10416.7 h 5208.4 z"
       style="display:inline;fill:#ff8f44;fill-opacity:1;stroke-width:1811.6"
       id="path27" /><path
       d="m 593750.09,614583.29 v 10416.7 h -5208.3 -5208.4 v -10416.7 h 5208.4 z"
       style="display:inline;fill:#ff8f44;fill-opacity:1;stroke-width:1811.6"
       id="path28" /><path
       d="m 604166.79,604166.66 v 10416.7 h -5208.3 -5208.4 v -10416.7 h 5208.4 z"
       style="display:inline;fill:#ff8f44;fill-opacity:1;stroke-width:1811.6"
       id="path29" /><path
       d="m 593750.13,593749.93 v 10416.7 h -5208.3 -5208.4 v -10416.7 h 5208.4 z"
       style="display:inline;fill:#ff8f44;fill-opacity:1;stroke-width:1811.6"
       id="path30" /><path
       d="M 583333.46,583333.3 V 593750 h -5208.3 -5208.4 v -10416.7 h 5208.4 z"
       style="display:inline;fill:#ff8f44;fill-opacity:1;stroke-width:1811.6"
       id="path31" /><path
       d="m 520833.6,593749.93 v 10416.7 h -5208.3 -5208.4 v -10416.7 h 5208.4 z"
       style="display:inline;fill:#ff8f44;fill-opacity:1;stroke-width:1811.6"
       id="path43" /><path
       d="M 520833.6,552083.3 V 562500 h -5208.3 -5208.4 v -10416.7 h 5208.4 z"
       style="display:inline;fill:#ff8f44;fill-opacity:1;stroke-width:1811.6"
       id="path44" /><path
       d="M 531250.16,583333.3 V 593750 h -5208.3 -5208.4 v -10416.7 h 5208.4 z"
       style="display:inline;fill:#ff8f44;fill-opacity:1;stroke-width:1811.6"
       id="path45" /><path
       d="M 510416.94,583333.3 V 593750 h -5208.3 -5208.4 v -10416.7 h 5208.4 z"
       style="display:inline;fill:#ff8f44;fill-opacity:1;stroke-width:1811.6"
       id="path46" /><path
       d="m 510416.97,562499.99 v 10416.7 h -5208.3 -5208.4 v -10416.7 h 5208.4 z"
       style="display:inline;fill:#ff8f44;fill-opacity:1;stroke-width:1811.6"
       id="path47" /><path
       d="m 531250.23,562500.06 v 10416.7 h -5208.3 -5208.4 v -10416.7 h 5208.4 z"
       style="display:inline;fill:#ff8f44;fill-opacity:1;stroke-width:1811.6"
       id="path48" /><path
       d="m 572916.73,624999.96 v 10416.7 h -5208.3 -5208.4 v -10416.7 h 5208.4 z"
       style="display:inline;fill:#ff6a07;fill-opacity:1;stroke-width:1811.6"
       id="path22" /><path
       d="m 583333.43,614583.33 v 10416.7 h -5208.3 -5208.4 v -10416.7 h 5208.4 z"
       style="display:inline;fill:#ff6a07;fill-opacity:1;stroke-width:1811.6"
       id="path23" /><path
       d="m 593750.13,604166.63 v 10416.7 h -5208.3 -5208.4 v -10416.7 h 5208.4 z"
       style="display:inline;fill:#ff6a07;fill-opacity:1;stroke-width:1811.6"
       id="path24" /><path
       d="m 583333.43,593749.93 v 10416.7 h -5208.3 -5208.4 v -10416.7 h 5208.4 z"
       style="display:inline;fill:#ff6a07;fill-opacity:1;stroke-width:1811.6"
       id="path25" /><path
       d="M 572916.73,583333.3 V 593750 h -5208.3 -5208.4 v -10416.7 h 5208.4 z"
       style="display:inline;fill:#ff6a07;fill-opacity:1;stroke-width:1811.6"
       id="path26" /><path
       d="m 520833.46,604166.63 v 10416.7 h -5208.3 -5208.4 v -10416.7 h 5208.4 z"
       style="display:inline;fill:#ff6a07;fill-opacity:1;stroke-width:1811.6"
       id="path37" /><path
       d="m 531250.16,593749.96 v 10416.7 h -5208.3 -5208.4 v -10416.7 h 5208.4 z"
       style="display:inline;fill:#ff6a07;fill-opacity:1;stroke-width:1811.6"
       id="path38" /><path
       d="m 510416.9,593749.93 v 10416.7 h -5208.3 -5208.4 v -10416.7 h 5208.4 z"
       style="display:inline;fill:#ff6a07;fill-opacity:1;stroke-width:1811.6"
       id="path39" /><path
       d="m 520833.57,541666.62 v 10416.7 h -5208.3 -5208.4 v -10416.7 h 5208.4 z"
       style="display:inline;fill:#ff6a07;fill-opacity:1;stroke-width:1811.6"
       id="path40" /><path
       d="m 531250.23,552083.36 v 10416.7 h -5208.3 -5208.4 v -10416.7 h 5208.4 z"
       style="display:inline;fill:#ff6a07;fill-opacity:1;stroke-width:1811.6"
       id="path41" /><path
       d="M 510416.9,552083.3 V 562500 h -5208.3 -5208.4 v -10416.7 h 5208.4 z"
       style="display:inline;fill:#ff6a07;fill-opacity:1;stroke-width:1811.6"
       id="path42" /><path
       d="m 468750.07,489583.4 v 10416.7 h -5208.3 -5208.4 v -10416.7 h 5208.4 z"
       style="display:inline;fill:#007200;fill-opacity:1;stroke-width:1811.6"
       id="path60" /><path
       d="m 500000.17,468750 v 10416.7 h -5208.3 -5208.4 V 468750 h 5208.4 z"
       style="display:inline;fill:#00a300;fill-opacity:1;stroke-width:1811.6"
       id="path62" /><path
       d="m 479166.8,468749.97 v 10416.7 h -5208.3 -5208.4 v -10416.7 h 5208.4 z"
       style="display:inline;fill:#00a300;fill-opacity:1;stroke-width:1811.6"
       id="path63" /><path
       d="m 468750.13,479166.64 v 10416.7 h -5208.3 -5208.4 v -10416.7 h 5208.4 z"
       style="display:inline;fill:#00a300;fill-opacity:1;stroke-width:1811.6"
       id="path64" /><path
       d="m 489583.47,468750 v 10416.7 h -5208.3 -5208.4 V 468750 h 5208.4 z"
       style="display:inline;fill:#00a300;fill-opacity:1;stroke-width:1811.6"
       id="path69" /><path
       d="m 520833.46,531249.97 v 10416.7 h -5208.3 -5208.4 v -10416.7 h 5208.4 z"
       style="display:inline;stroke-width:1811.6"
       id="path78" /><path
       d="m 520833.57,614583.32 v 10416.7 h -5208.3 -5208.4 v -10416.7 h 5208.4 z"
       style="display:inline;stroke-width:1811.6"
       id="path96" /><path
       d="m 531250.23,604166.63 v 10416.69 h -5208.3 -5208.4 v -10416.69 h 5208.4 z"
       style="display:inline;stroke-width:1811.6"
       id="path97" /><path
       d="m 510416.9,604166.63 v 10416.69 h -5208.3 -5208.4 v -10416.69 h 5208.4 z"
       style="display:inline;stroke-width:1811.6"
       id="path98" /><path
       d="m 541666.9,593749.95 v 10416.7 h -5208.3 -5208.4 v -10416.7 h 5208.4 z"
       style="display:inline;stroke-width:1811.6"
       id="path99" /><path
       d="m 500000.13,593750 v 10416.69 h -5208.3 -5208.4 V 593750 h 5208.4 z"
       style="display:inline;stroke-width:1811.6"
       id="path100" /><path
       d="M 541666.9,583333.3 V 593750 h -5208.3 -5208.4 v -10416.7 h 5208.4 z"
       style="display:inline;stroke-width:1811.6"
       id="path101" /><path
       d="M 500000.24,583333.3 V 593750 h -5208.3 -5208.4 v -10416.7 h 5208.4 z"
       style="display:inline;stroke-width:1811.6"
       id="path102-1" /><path
       d="M 500000.2,552083.3 V 562500 h -5208.3 -5208.4 v -10416.7 h 5208.4 z"
       style="display:inline;stroke-width:1811.6"
       id="path76-5" /><path
       d="m 510416.87,541666.63 v 10416.69 h -5208.3 -5208.4 v -10416.69 h 5208.4 z"
       style="display:inline;stroke-width:1811.6"
       id="path77-8" /><path
       d="m 531250.23,541666.67 v 10416.7 h -5208.3 -5208.4 v -10416.7 h 5208.4 z"
       style="display:inline;stroke-width:1811.6"
       id="path79-9" /><path
       d="m 541666.93,552083.37 v 10416.69 h -5208.3 -5208.4 v -10416.69 h 5208.4 z"
       style="display:inline;stroke-width:1811.6"
       id="path84-9" /><path
       d="m 541666.86,562499.96 v 10416.7 h -5208.3 -5208.4 v -10416.7 h 5208.4 z"
       style="display:inline;stroke-width:1811.6"
       id="path85-9" /><path
       d="m 500000.27,562500 v 10416.69 h -5208.3 -5208.4 V 562500 h 5208.4 z"
       style="display:inline;stroke-width:1811.6"
       id="path89-3" /><path
       d="m 500000.17,572916.63 v 10416.69 h -5208.3 -5208.4 v -10416.69 h 5208.4 z"
       style="display:inline;stroke-width:1811.6"
       id="path90-3" /><path
       d="m 541666.83,572916.63 v 10416.69 h -5208.3 -5208.4 v -10416.69 h 5208.4 z"
       style="display:inline;stroke-width:1811.6"
       id="path94-7" /></g></svg>
