<?xml version="1.0" encoding="UTF-8" standalone="no"?>
<!-- Created with Inkscape (http://www.inkscape.org/) -->

<svg
   width="100"
   height="100"
   viewBox="0 0 1041666.6 1041666.6"
   version="1.1"
   id="svg1"
   sodipodi:docname="skin1.svg"
   inkscape:version="1.4 (e7c3feb1, 2024-10-09)"
   xml:space="preserve"
   inkscape:export-filename="Test1.png"
   inkscape:export-xdpi="83.842796"
   inkscape:export-ydpi="83.842796"
   xmlns:inkscape="http://www.inkscape.org/namespaces/inkscape"
   xmlns:sodipodi="http://sodipodi.sourceforge.net/DTD/sodipodi-0.dtd"
   xmlns="http://www.w3.org/2000/svg"
   xmlns:svg="http://www.w3.org/2000/svg"><sodipodi:namedview
     id="namedview1"
     pagecolor="#ffffff"
     bordercolor="#000000"
     borderopacity="0.25"
     inkscape:showpageshadow="2"
     inkscape:pageopacity="0.0"
     inkscape:pagecheckerboard="0"
     inkscape:deskcolor="#d1d1d1"
     inkscape:document-units="px"
     inkscape:zoom="4"
     inkscape:cx="27.875"
     inkscape:cy="51.625"
     inkscape:window-width="1200"
     inkscape:window-height="750"
     inkscape:window-x="132"
     inkscape:window-y="25"
     inkscape:window-maximized="0"
     inkscape:current-layer="svg1"
     showguides="false"
     showgrid="true" /><defs
     id="defs1"><inkscape:path-effect
       effect="bspline"
       id="path-effect7"
       is_visible="true"
       lpeversion="1.3"
       weight="33.333333"
       steps="2"
       helper_size="0"
       apply_no_weight="true"
       apply_with_weight="true"
       only_selected="false"
       uniform="false" /></defs><g
     inkscape:label="Background"
     inkscape:groupmode="layer"
     id="layer1"
     transform="translate(-2010416.6,802083.27)"
     style="display:inline" /><g
     id="g3843-0"
     inkscape:label=" BasicSprite"
     transform="translate(-633128.59,-1042866.6)"
     style="display:inline"><path
       d="m 1221670,1557291.4 v 10416.8 h 5208.3 5208.4 v -10416.8 h -5208.4 z"
       style="display:inline;stroke-width:1811.6"
       id="path3241-3-2" /><path
       d="m 1263336.6,1567708.2 v 10416.7 h 5208.3 5208.4 v -10416.7 h -5208.4 z"
       style="display:inline;stroke-width:1811.6"
       id="path3242-6-4" /><path
       d="m 1263336.7,1578124.8 v 10416.7 h 5208.3 5208.4 v -10416.7 h -5208.4 z"
       style="display:inline;stroke-width:1811.6"
       id="path3243-6-8" /><path
       d="m 1221670,1578124.8 v 10416.7 h 5208.3 5208.4 v -10416.7 h -5208.4 z"
       style="display:inline;stroke-width:1811.6"
       id="path3244-3-3" /><path
       d="m 1221670,1588541.5 v 10416.7 h 5208.3 5208.4 v -10416.7 h -5208.4 z"
       style="display:inline;stroke-width:1811.6"
       id="path3245-56-9" /><path
       d="m 1263336.6,1588541.5 v 10416.7 h 5208.3 5208.4 v -10416.7 h -5208.4 z"
       style="display:inline;stroke-width:1811.6"
       id="path3246-1-0" /><path
       d="m 1221670,1546874.8 v 10416.7 h 5208.3 5208.4 v -10416.7 h -5208.4 z"
       style="display:inline;stroke-width:1811.6"
       id="path3340-9-5" /><path
       d="m 1263336.6,1546874.8 v 10416.7 h 5208.3 5208.4 v -10416.7 h -5208.4 z"
       style="display:inline;stroke-width:1811.6"
       id="path3341-5-2" /><path
       d="m 1211253.3,1546874.8 v 10416.7 h 5208.3 5208.4 v -10416.7 h -5208.4 z"
       style="display:inline;stroke-width:1811.6"
       id="path3342-9-2" /><path
       d="m 1221670,1536458.2 v 10416.7 h 5208.3 5208.4 v -10416.7 h -5208.4 z"
       style="display:inline;stroke-width:1811.6"
       id="path3343-0-7" /><path
       d="m 1232086.7,1526041.5 v 10416.7 h 5208.3 5208.4 v -10416.7 h -5208.4 z"
       style="display:inline;stroke-width:1811.6"
       id="path3344-9-3" /><path
       d="m 1242503.3,1526041.5 v 10416.7 h 5208.3 5208.4 v -10416.7 h -5208.4 z"
       style="display:inline;stroke-width:1811.6"
       id="path3345-4-7" /><path
       d="m 1252920,1526041.5 v 10416.7 h 5208.3 5208.4 v -10416.7 h -5208.4 z"
       style="display:inline;stroke-width:1811.6"
       id="path3346-6-9" /><path
       d="m 1263336.7,1536458.2 v 10416.7 h 5208.3 5208.4 v -10416.7 h -5208.4 z"
       style="display:inline;stroke-width:1811.6"
       id="path3347-78-0" /><path
       d="m 1273753.3,1546874.8 v 10416.7 h 5208.3 5208.4 v -10416.7 h -5208.4 z"
       style="display:inline;stroke-width:1811.6"
       id="path3348-4-2" /><path
       d="m 1117503.3,1546874.8 v 10416.7 h 5208.3 5208.4 v -10416.7 h -5208.4 z"
       style="display:inline;stroke-width:1811.6"
       id="path3370-6-3" /><path
       d="m 1065420,1619791.5 v 10416.7 h 5208.3 5208.4 v -10416.7 h -5208.4 z"
       style="display:inline;stroke-width:1811.6"
       id="path3371-3-9" /><path
       d="m 1075836.7,1619791.5 v 10416.7 h 5208.3 5208.4 v -10416.7 h -5208.4 z"
       style="display:inline;stroke-width:1811.6"
       id="path3372-8-9" /><path
       d="m 1086253.3,1619791.5 v 10416.7 h 5208.3 5208.4 v -10416.7 h -5208.4 z"
       style="display:inline;stroke-width:1811.6"
       id="path3373-1-7" /><path
       d="m 1096670,1619791.5 v 10416.7 h 5208.3 5208.4 v -10416.7 h -5208.4 z"
       style="display:inline;stroke-width:1811.6"
       id="path3374-3-0" /><path
       d="m 1107086.7,1619791.5 v 10416.7 h 5208.3 5208.4 v -10416.7 h -5208.4 z"
       style="display:inline;stroke-width:1811.6"
       id="path3375-9-3" /><path
       d="m 1263336.6,1557291.5 v 10416.7 h 5208.3 5208.4 v -10416.7 h -5208.4 z"
       style="display:inline;stroke-width:1811.6"
       id="path3248-8-9" /><path
       d="m 1221670,1567708.2 v 10416.7 h 5208.3 5208.4 v -10416.7 h -5208.4 z"
       style="display:inline;stroke-width:1811.6"
       id="path3249-0-8" /><path
       d="m 1232086.7,1619791.5 v 10416.8 h 5208.3 5208.4 v -10416.8 h -5208.4 z"
       style="display:inline;stroke-width:1811.6"
       id="path3271-0-6" /><path
       d="m 1242503.3,1619791.5 v 10416.8 h 5208.3 5208.4 v -10416.8 h -5208.4 z"
       style="display:inline;stroke-width:1811.6"
       id="path3273-8-5" /><path
       d="m 1252920,1619791.5 v 10416.8 h 5208.3 5208.4 v -10416.8 h -5208.4 z"
       style="display:inline;stroke-width:1811.6"
       id="path3274-8-7" /><path
       d="m 1221670,1609374.8 v 10416.8 h 5208.3 5208.4 v -10416.8 h -5208.4 z"
       style="display:inline;stroke-width:1811.6"
       id="path3281-74-6" /><path
       d="m 1221670,1619791.5 v 10416.8 h 5208.3 5208.4 v -10416.8 h -5208.4 z"
       style="display:inline;stroke-width:1811.6"
       id="path3296-2-2" /><path
       d="m 1263336.6,1619791.5 v 10416.8 h 5208.3 5208.4 v -10416.8 h -5208.4 z"
       style="display:inline;stroke-width:1811.6"
       id="path3298-0-7" /><path
       d="m 1263336.6,1598958 v 10416.8 h 5208.3 5208.4 V 1598958 h -5208.4 z"
       style="display:inline;stroke-width:1811.6"
       id="path3299-6-0" /><path
       d="m 1221670,1598958.2 v 10416.8 h 5208.3 5208.4 v -10416.8 h -5208.4 z"
       style="display:inline;stroke-width:1811.6"
       id="path3302-8-3" /><path
       d="m 1263336.7,1609374.8 v 10416.8 h 5208.3 5208.4 v -10416.8 h -5208.4 z"
       style="display:inline;stroke-width:1811.6"
       id="path3134-5-9" /><rect
       style="display:inline;fill:#00aeae;fill-opacity:1;stroke-width:1811.6"
       id="rect3358-5-9"
       width="10416.616"
       height="10416.659"
       x="1242503.4"
       y="1609375"
       rx="35531.555"
       ry="0.016755885"
       inkscape:label="BluePixel" /><rect
       style="display:inline;fill:#00aeae;fill-opacity:1;stroke-width:1811.6"
       id="rect3359-2-9"
       width="10416.616"
       height="10416.659"
       x="1232086.8"
       y="1598958.2"
       rx="35531.555"
       ry="0.016755885"
       inkscape:label="BluePixel" /><rect
       style="display:inline;fill:#00aeae;fill-opacity:1;stroke-width:1811.6"
       id="rect3360-3-1"
       width="10416.616"
       height="10416.659"
       x="1232086.8"
       y="1609375"
       rx="35531.555"
       ry="0.016755885"
       inkscape:label="BluePixel" /><rect
       style="display:inline;fill:#00aeae;fill-opacity:1;stroke-width:1811.6"
       id="rect3361-9-7"
       width="10416.616"
       height="10416.659"
       x="1232086.8"
       y="1567708.2"
       rx="35531.555"
       ry="0.016755885"
       inkscape:label="BluePixel" /><rect
       style="display:inline;fill:#00aeae;fill-opacity:1;stroke-width:1811.6"
       id="rect3362-98-2"
       width="10416.616"
       height="10416.659"
       x="1252920.1"
       y="1567708.2"
       rx="35531.555"
       ry="0.016755885"
       inkscape:label="BluePixel" /><rect
       style="display:inline;fill:#00aeae;fill-opacity:1;stroke-width:1811.6"
       id="rect3363-0-3"
       width="10416.616"
       height="10416.659"
       x="1242503.4"
       y="1567708.2"
       rx="35531.555"
       ry="0.016755885"
       inkscape:label="BluePixel" /><rect
       style="display:inline;fill:#00aeae;fill-opacity:1;stroke-width:1811.6"
       id="rect3364-0-6"
       width="10416.616"
       height="10416.659"
       x="1232086.8"
       y="1578125"
       rx="35531.555"
       ry="0.016755885"
       inkscape:label="BluePixel" /><rect
       style="display:inline;fill:#00aeae;fill-opacity:1;stroke-width:1811.6"
       id="rect3365-5-5"
       width="10416.616"
       height="10416.659"
       x="1252920.1"
       y="1578125"
       rx="35531.555"
       ry="0.016755885"
       inkscape:label="BluePixel" /><rect
       style="display:inline;fill:#00aeae;fill-opacity:1;stroke-width:1811.6"
       id="rect3366-2-5"
       width="10416.616"
       height="10416.659"
       x="1242503.4"
       y="1578125"
       rx="35531.555"
       ry="0.016755885"
       inkscape:label="BluePixel" /><rect
       style="display:inline;fill:#00aeae;fill-opacity:1;stroke-width:1811.6"
       id="rect3367-9-8"
       width="10416.616"
       height="10416.659"
       x="1232086.8"
       y="1588541.6"
       rx="35531.555"
       ry="0.016755885"
       inkscape:label="BluePixel" /><rect
       style="display:inline;fill:#00aeae;fill-opacity:1;stroke-width:1811.6"
       id="rect3368-6-1"
       width="10416.616"
       height="10416.659"
       x="1242503.4"
       y="1588541.6"
       rx="35531.555"
       ry="0.016755885"
       inkscape:label="BluePixel" /><rect
       style="display:inline;fill:#008080;fill-opacity:1;stroke-width:1811.6"
       id="rect3348-2-4"
       width="10416.616"
       height="10416.659"
       x="1232086.8"
       y="1536458.2"
       rx="35531.555"
       ry="0.016755885"
       inkscape:label="BluePixel" /><rect
       style="display:inline;fill:#008080;fill-opacity:1;stroke-width:1811.6"
       id="rect3349-7-7"
       width="10416.616"
       height="10416.659"
       x="1242503.4"
       y="1536458.2"
       rx="35531.555"
       ry="0.016755885"
       inkscape:label="BluePixel" /><rect
       style="display:inline;fill:#008080;fill-opacity:1;stroke-width:1811.6"
       id="rect3350-40-1"
       width="10416.616"
       height="10416.659"
       x="1252920.1"
       y="1536458.2"
       rx="35531.555"
       ry="0.016755885"
       inkscape:label="BluePixel" /><rect
       style="display:inline;fill:#008080;fill-opacity:1;stroke-width:1811.6"
       id="rect3351-75-3"
       width="10416.616"
       height="10416.659"
       x="1252920.1"
       y="1546874.9"
       rx="35531.555"
       ry="0.016755885"
       inkscape:label="BluePixel" /><rect
       style="display:inline;fill:#008080;fill-opacity:1;stroke-width:1811.6"
       id="rect3352-1-8"
       width="10416.616"
       height="10416.659"
       x="1242503.4"
       y="1546874.9"
       rx="35531.555"
       ry="0.016755885"
       inkscape:label="BluePixel" /><rect
       style="display:inline;fill:#008080;fill-opacity:1;stroke-width:1811.6"
       id="rect3353-9-4"
       width="10416.616"
       height="10416.659"
       x="1232086.8"
       y="1546874.9"
       rx="35531.555"
       ry="0.016755885"
       inkscape:label="BluePixel" /><rect
       style="display:inline;fill:#008080;fill-opacity:1;stroke-width:1811.6"
       id="rect3354-68-8"
       width="10416.616"
       height="10416.659"
       x="1232086.8"
       y="1557291.6"
       rx="35531.555"
       ry="0.016755885"
       inkscape:label="BluePixel" /><rect
       style="display:inline;fill:#008080;fill-opacity:1;stroke-width:1811.6"
       id="rect3355-00-0"
       width="10416.616"
       height="10416.659"
       x="1242503.4"
       y="1557291.6"
       rx="35531.555"
       ry="0.016755885"
       inkscape:label="BluePixel" /><rect
       style="display:inline;fill:#008080;fill-opacity:1;stroke-width:1811.6"
       id="rect3356-7-4"
       width="10416.616"
       height="10416.659"
       x="1252920.1"
       y="1557291.6"
       rx="35531.555"
       ry="0.016755885"
       inkscape:label="BluePixel" /><path
       style="fill:#fbfef8;fill-opacity:1;stroke-width:993.189"
       d="m 1252920,1614583.1 v -5208.3 h 5208.3 5208.3 v 5208.3 5208.4 h -5208.3 -5208.3 z"
       id="path3356-4-6" /><path
       style="fill:#fbfef8;fill-opacity:1;stroke-width:993.191"
       d="m 1252920,1604166.5 v -5208.3 h 5208.3 5208.3 v 5208.3 5208.4 h -5208.3 -5208.3 z"
       id="path3357-0-0" /><path
       style="fill:#fbfef8;fill-opacity:1;stroke-width:993.196"
       d="m 1242503.3,1604166.5 v -5208.3 h 5208.3 5208.4 v 5208.3 5208.4 h -5208.4 -5208.3 z"
       id="path3358-0-3" /><path
       style="fill:#fbfef8;fill-opacity:1;stroke-width:993.191"
       d="m 1252920,1593749.8 v -5208.3 h 5208.3 5208.3 v 5208.3 5208.4 h -5208.3 -5208.3 z"
       id="path3369-5-2" /><path
       d="m 1065420,1557291.4 v 10416.8 h 5208.3 5208.4 v -10416.8 h -5208.4 z"
       style="display:inline;stroke-width:1811.6"
       id="path3241-4-1-6" /><path
       d="m 1107086.6,1567708.2 v 10416.7 h 5208.3 5208.4 v -10416.7 h -5208.4 z"
       style="display:inline;stroke-width:1811.6"
       id="path3242-8-3-9" /><path
       d="m 1107086.7,1578124.8 v 10416.7 h 5208.3 5208.4 v -10416.7 h -5208.4 z"
       style="display:inline;stroke-width:1811.6"
       id="path3243-5-9-4" /><path
       d="m 1065420,1578124.8 v 10416.7 h 5208.3 5208.4 v -10416.7 h -5208.4 z"
       style="display:inline;stroke-width:1811.6"
       id="path3244-4-1-1" /><path
       d="m 1065420,1588541.5 v 10416.7 h 5208.3 5208.4 v -10416.7 h -5208.4 z"
       style="display:inline;stroke-width:1811.6"
       id="path3245-5-8-3" /><path
       d="m 1107086.6,1588541.5 v 10416.7 h 5208.3 5208.4 v -10416.7 h -5208.4 z"
       style="display:inline;stroke-width:1811.6"
       id="path3246-6-2-7" /><path
       d="m 1065420,1546874.8 v 10416.7 h 5208.3 5208.4 v -10416.7 h -5208.4 z"
       style="display:inline;stroke-width:1811.6"
       id="path3340-6-8-8" /><path
       d="m 1107086.6,1546874.8 v 10416.7 h 5208.3 5208.4 v -10416.7 h -5208.4 z"
       style="display:inline;stroke-width:1811.6"
       id="path3341-0-6-8" /><path
       d="m 1055003.3,1546874.9 v 10416.7 h 5208.3 5208.4 v -10416.7 h -5208.4 z"
       style="display:inline;stroke-width:1811.6"
       id="path3342-3-6-3" /><path
       d="m 1065420,1536458.2 v 10416.7 h 5208.3 5208.4 v -10416.7 h -5208.4 z"
       style="display:inline;stroke-width:1811.6"
       id="path3343-8-6-8" /><path
       d="m 1075836.7,1526041.5 v 10416.7 h 5208.3 5208.4 v -10416.7 h -5208.4 z"
       style="display:inline;stroke-width:1811.6"
       id="path3344-0-3-1" /><path
       d="m 1086253.3,1526041.5 v 10416.7 h 5208.3 5208.4 v -10416.7 h -5208.4 z"
       style="display:inline;stroke-width:1811.6"
       id="path3345-9-6-5" /><path
       d="m 1096670,1526041.5 v 10416.7 h 5208.3 5208.4 v -10416.7 h -5208.4 z"
       style="display:inline;stroke-width:1811.6"
       id="path3346-0-1-3" /><path
       d="m 1107086.7,1536458.2 v 10416.7 h 5208.3 5208.4 v -10416.7 h -5208.4 z"
       style="display:inline;stroke-width:1811.6"
       id="path3347-7-6-5" /><path
       d="m 1107086.6,1557291.5 v 10416.7 h 5208.3 5208.4 v -10416.7 h -5208.4 z"
       style="display:inline;stroke-width:1811.6"
       id="path3248-9-2-4" /><path
       d="m 1065420,1567708.2 v 10416.7 h 5208.3 5208.4 v -10416.7 h -5208.4 z"
       style="display:inline;stroke-width:1811.6"
       id="path3249-8-3-3" /><path
       d="m 1065420,1609374.8 v 10416.8 h 5208.3 5208.4 v -10416.8 h -5208.4 z"
       style="display:inline;stroke-width:1811.6"
       id="path3281-7-9-6" /><path
       d="m 1107086.7,1598958 v 10416.8 h 5208.3 5208.3 V 1598958 h -5208.3 z"
       style="display:inline;stroke-width:1811.59"
       id="path3299-7-7-5" /><path
       d="m 1065420,1598958.2 v 10416.8 h 5208.3 5208.4 v -10416.8 h -5208.4 z"
       style="display:inline;stroke-width:1811.6"
       id="path3302-0-0-9" /><path
       d="m 1107086.7,1609374.8 v 10416.8 h 5208.3 5208.4 v -10416.8 h -5208.4 z"
       style="display:inline;stroke-width:1811.6"
       id="path3134-1-2-5" /><rect
       style="display:inline;fill:#00aeae;fill-opacity:1;stroke-width:1811.6"
       id="rect3358-1-0-4"
       width="10416.616"
       height="10416.659"
       x="1086253.4"
       y="1609375"
       rx="35531.555"
       ry="0.016755885"
       inkscape:label="BluePixel" /><rect
       style="display:inline;fill:#00aeae;fill-opacity:1;stroke-width:1811.6"
       id="rect3359-1-0-9"
       width="10416.616"
       height="10416.659"
       x="1075836.8"
       y="1598958.2"
       rx="35531.555"
       ry="0.016755885"
       inkscape:label="BluePixel" /><rect
       style="display:inline;fill:#00aeae;fill-opacity:1;stroke-width:1811.6"
       id="rect3360-8-0-1"
       width="10416.616"
       height="10416.659"
       x="1075836.8"
       y="1609375"
       rx="35531.555"
       ry="0.016755885"
       inkscape:label="BluePixel" /><rect
       style="display:inline;fill:#00aeae;fill-opacity:1;stroke-width:1811.6"
       id="rect3361-2-4-7"
       width="10416.616"
       height="10416.659"
       x="1075836.8"
       y="1567708.2"
       rx="35531.555"
       ry="0.016755885"
       inkscape:label="BluePixel" /><rect
       style="display:inline;fill:#00aeae;fill-opacity:1;stroke-width:1811.6"
       id="rect3362-9-9-5"
       width="10416.616"
       height="10416.659"
       x="1096670.1"
       y="1567708.2"
       rx="35531.555"
       ry="0.016755885"
       inkscape:label="BluePixel" /><rect
       style="display:inline;fill:#00aeae;fill-opacity:1;stroke-width:1811.6"
       id="rect3363-2-0-5"
       width="10416.616"
       height="10416.659"
       x="1086253.4"
       y="1567708.2"
       rx="35531.555"
       ry="0.016755885"
       inkscape:label="BluePixel" /><rect
       style="display:inline;fill:#00aeae;fill-opacity:1;stroke-width:1811.6"
       id="rect3364-6-2-4"
       width="10416.616"
       height="10416.659"
       x="1075836.8"
       y="1578125"
       rx="35531.555"
       ry="0.016755885"
       inkscape:label="BluePixel" /><rect
       style="display:inline;fill:#00aeae;fill-opacity:1;stroke-width:1811.6"
       id="rect3365-9-9-1"
       width="10416.616"
       height="10416.659"
       x="1096670.1"
       y="1578125"
       rx="35531.555"
       ry="0.016755885"
       inkscape:label="BluePixel" /><rect
       style="display:inline;fill:#00aeae;fill-opacity:1;stroke-width:1811.6"
       id="rect3366-6-7-8"
       width="10416.616"
       height="10416.659"
       x="1086253.4"
       y="1578125"
       rx="35531.555"
       ry="0.016755885"
       inkscape:label="BluePixel" /><rect
       style="display:inline;fill:#00aeae;fill-opacity:1;stroke-width:1811.6"
       id="rect3367-4-3-8"
       width="10416.616"
       height="10416.659"
       x="1075836.8"
       y="1588541.6"
       rx="35531.555"
       ry="0.016755885"
       inkscape:label="BluePixel" /><rect
       style="display:inline;fill:#00aeae;fill-opacity:1;stroke-width:1811.6"
       id="rect3368-8-5-3"
       width="10416.616"
       height="10416.659"
       x="1086253.4"
       y="1588541.6"
       rx="35531.555"
       ry="0.016755885"
       inkscape:label="BluePixel" /><rect
       style="display:inline;fill:#008080;fill-opacity:1;stroke-width:1811.6"
       id="rect3348-7-4-5"
       width="10416.616"
       height="10416.659"
       x="1075836.8"
       y="1536458.2"
       rx="35531.555"
       ry="0.016755885"
       inkscape:label="BluePixel" /><rect
       style="display:inline;fill:#008080;fill-opacity:1;stroke-width:1811.6"
       id="rect3349-3-9-2"
       width="10416.616"
       height="10416.659"
       x="1086253.4"
       y="1536458.2"
       rx="35531.555"
       ry="0.016755885"
       inkscape:label="BluePixel" /><rect
       style="display:inline;fill:#008080;fill-opacity:1;stroke-width:1811.6"
       id="rect3350-4-7-2"
       width="10416.616"
       height="10416.659"
       x="1096670.1"
       y="1536458.2"
       rx="35531.555"
       ry="0.016755885"
       inkscape:label="BluePixel" /><rect
       style="display:inline;fill:#008080;fill-opacity:1;stroke-width:1811.6"
       id="rect3351-7-5-6"
       width="10416.616"
       height="10416.659"
       x="1096670.1"
       y="1546874.8"
       rx="35531.555"
       ry="0.016755885"
       inkscape:label="BluePixel" /><rect
       style="display:inline;fill:#008080;fill-opacity:1;stroke-width:1811.6"
       id="rect3352-9-0-6"
       width="10416.616"
       height="10416.659"
       x="1086253.4"
       y="1546874.8"
       rx="35531.555"
       ry="0.016755885"
       inkscape:label="BluePixel" /><rect
       style="display:inline;fill:#008080;fill-opacity:1;stroke-width:1811.6"
       id="rect3353-0-0-7"
       width="10416.616"
       height="10416.659"
       x="1075836.8"
       y="1546874.8"
       rx="35531.555"
       ry="0.016755885"
       inkscape:label="BluePixel" /><rect
       style="display:inline;fill:#008080;fill-opacity:1;stroke-width:1811.6"
       id="rect3354-6-0-8"
       width="10416.616"
       height="10416.659"
       x="1075836.8"
       y="1557291.6"
       rx="35531.555"
       ry="0.016755885"
       inkscape:label="BluePixel" /><rect
       style="display:inline;fill:#008080;fill-opacity:1;stroke-width:1811.6"
       id="rect3355-0-6-4"
       width="10416.616"
       height="10416.659"
       x="1086253.4"
       y="1557291.6"
       rx="35531.555"
       ry="0.016755885"
       inkscape:label="BluePixel" /><rect
       style="display:inline;fill:#008080;fill-opacity:1;stroke-width:1811.6"
       id="rect3356-6-3-1"
       width="10416.616"
       height="10416.659"
       x="1096670.1"
       y="1557291.6"
       rx="35531.555"
       ry="0.016755885"
       inkscape:label="BluePixel" /><path
       style="fill:#fbfef8;fill-opacity:1;stroke-width:993.196"
       d="m 1096670,1614583.1 v -5208.3 h 5208.3 5208.4 v 5208.3 5208.4 h -5208.4 -5208.3 z"
       id="path3356-0-6-7" /><path
       style="fill:#fbfef8;fill-opacity:1;stroke-width:993.196"
       d="m 1096670,1604166.6 v -5208.3 h 5208.3 5208.4 v 5208.3 5208.4 h -5208.4 -5208.3 z"
       id="path3357-2-0-1" /><path
       style="fill:#fbfef8;fill-opacity:1;stroke-width:993.196"
       d="m 1086253.3,1604166.5 v -5208.3 h 5208.4 5208.3 v 5208.3 5208.4 h -5208.3 -5208.4 z"
       id="path3358-5-0-8" /><path
       style="fill:#fbfef8;fill-opacity:1;stroke-width:993.191"
       d="m 1096670,1593749.8 v -5208.3 h 5208.3 5208.3 v 5208.3 5208.4 h -5208.3 -5208.3 z"
       id="path3369-2-9-7" /></g></svg>
