<?xml version="1.0" encoding="UTF-8" standalone="no"?>
<!-- Created with Inkscape (http://www.inkscape.org/) -->

<svg
   width="100"
   height="100"
   viewBox="0 0 1041666.6 1041666.6"
   version="1.1"
   id="svg1"
   sodipodi:docname="eyes111.svg"
   inkscape:version="1.4 (e7c3feb1, 2024-10-09)"
   xml:space="preserve"
   inkscape:export-filename="Test1.png"
   inkscape:export-xdpi="83.842796"
   inkscape:export-ydpi="83.842796"
   xmlns:inkscape="http://www.inkscape.org/namespaces/inkscape"
   xmlns:sodipodi="http://sodipodi.sourceforge.net/DTD/sodipodi-0.dtd"
   xmlns="http://www.w3.org/2000/svg"
   xmlns:svg="http://www.w3.org/2000/svg"><sodipodi:namedview
     id="namedview1"
     pagecolor="#ffffff"
     bordercolor="#000000"
     borderopacity="0.25"
     inkscape:showpageshadow="2"
     inkscape:pageopacity="0.0"
     inkscape:pagecheckerboard="0"
     inkscape:deskcolor="#d1d1d1"
     inkscape:document-units="px"
     inkscape:zoom="16"
     inkscape:cx="53.59375"
     inkscape:cy="55.71875"
     inkscape:window-width="1200"
     inkscape:window-height="750"
     inkscape:window-x="132"
     inkscape:window-y="25"
     inkscape:window-maximized="0"
     inkscape:current-layer="svg1"
     showguides="false"
     showgrid="true" /><defs
     id="defs1"><inkscape:path-effect
       effect="bspline"
       id="path-effect7"
       is_visible="true"
       lpeversion="1.3"
       weight="33.333333"
       steps="2"
       helper_size="0"
       apply_no_weight="true"
       apply_with_weight="true"
       only_selected="false"
       uniform="false" /></defs><g
     inkscape:label="Background"
     inkscape:groupmode="layer"
     id="layer1"
     transform="translate(-2010416.6,802083.27)"
     style="display:inline" /><g
     id="g3843"
     inkscape:label=" BasicSprite"
     transform="translate(-633128.44,-1042866.5)"
     style="display:inline"><path
       d="m 1221670,1557291.4 v 10416.8 h 5208.3 5208.4 v -10416.8 h -5208.4 z"
       style="display:inline;stroke-width:1811.6"
       id="path3241-3" /><path
       d="m 1263336.6,1567708.2 v 10416.7 h 5208.3 5208.4 v -10416.7 h -5208.4 z"
       style="display:inline;stroke-width:1811.6"
       id="path3242-6" /><path
       d="m 1263336.7,1578124.8 v 10416.7 h 5208.3 5208.4 v -10416.7 h -5208.4 z"
       style="display:inline;stroke-width:1811.6"
       id="path3243-6" /><path
       d="m 1221670,1578124.8 v 10416.7 h 5208.3 5208.4 v -10416.7 h -5208.4 z"
       style="display:inline;stroke-width:1811.6"
       id="path3244-3" /><path
       d="m 1221670,1588541.5 v 10416.7 h 5208.3 5208.4 v -10416.7 h -5208.4 z"
       style="display:inline;stroke-width:1811.6"
       id="path3245-56" /><path
       d="m 1263336.6,1588541.5 v 10416.7 h 5208.3 5208.4 v -10416.7 h -5208.4 z"
       style="display:inline;stroke-width:1811.6"
       id="path3246-1" /><path
       d="m 1221670,1546874.8 v 10416.7 h 5208.3 5208.4 v -10416.7 h -5208.4 z"
       style="display:inline;stroke-width:1811.6"
       id="path3340-9" /><path
       d="m 1263336.6,1546874.8 v 10416.7 h 5208.3 5208.4 v -10416.7 h -5208.4 z"
       style="display:inline;stroke-width:1811.6"
       id="path3341-5" /><path
       d="m 1211253.3,1546874.8 v 10416.7 h 5208.3 5208.4 v -10416.7 h -5208.4 z"
       style="display:inline;stroke-width:1811.6"
       id="path3342-9" /><path
       d="m 1221670,1536458.2 v 10416.7 h 5208.3 5208.4 v -10416.7 h -5208.4 z"
       style="display:inline;stroke-width:1811.6"
       id="path3343-0" /><path
       d="m 1232086.7,1526041.5 v 10416.7 h 5208.3 5208.4 v -10416.7 h -5208.4 z"
       style="display:inline;stroke-width:1811.6"
       id="path3344-9" /><path
       d="m 1242503.3,1526041.5 v 10416.7 h 5208.3 5208.4 v -10416.7 h -5208.4 z"
       style="display:inline;stroke-width:1811.6"
       id="path3345-4" /><path
       d="m 1252920,1526041.5 v 10416.7 h 5208.3 5208.4 v -10416.7 h -5208.4 z"
       style="display:inline;stroke-width:1811.6"
       id="path3346-6" /><path
       d="m 1263336.7,1536458.2 v 10416.7 h 5208.3 5208.4 v -10416.7 h -5208.4 z"
       style="display:inline;stroke-width:1811.6"
       id="path3347-78" /><path
       d="m 1273753.3,1546874.8 v 10416.7 h 5208.3 5208.4 v -10416.7 h -5208.4 z"
       style="display:inline;stroke-width:1811.6"
       id="path3348-4" /><path
       d="m 1117503.3,1546874.8 v 10416.7 h 5208.3 5208.4 v -10416.7 h -5208.4 z"
       style="display:inline;stroke-width:1811.6"
       id="path3370-6" /><path
       d="m 1065420,1619791.5 v 10416.7 h 5208.3 5208.4 v -10416.7 h -5208.4 z"
       style="display:inline;stroke-width:1811.6"
       id="path3371-3" /><path
       d="m 1075836.7,1619791.5 v 10416.7 h 5208.3 5208.4 v -10416.7 h -5208.4 z"
       style="display:inline;stroke-width:1811.6"
       id="path3372-8" /><path
       d="m 1086253.3,1619791.5 v 10416.7 h 5208.3 5208.4 v -10416.7 h -5208.4 z"
       style="display:inline;stroke-width:1811.6"
       id="path3373-1" /><path
       d="m 1096670,1619791.5 v 10416.7 h 5208.3 5208.4 v -10416.7 h -5208.4 z"
       style="display:inline;stroke-width:1811.6"
       id="path3374-3" /><path
       d="m 1107086.7,1619791.5 v 10416.7 h 5208.3 5208.4 v -10416.7 h -5208.4 z"
       style="display:inline;stroke-width:1811.6"
       id="path3375-9" /><path
       d="m 1263336.6,1557291.5 v 10416.7 h 5208.3 5208.4 v -10416.7 h -5208.4 z"
       style="display:inline;stroke-width:1811.6"
       id="path3248-8" /><path
       d="m 1221670,1567708.2 v 10416.7 h 5208.3 5208.4 v -10416.7 h -5208.4 z"
       style="display:inline;stroke-width:1811.6"
       id="path3249-0" /><path
       d="m 1232086.7,1619791.5 v 10416.8 h 5208.3 5208.4 v -10416.8 h -5208.4 z"
       style="display:inline;stroke-width:1811.6"
       id="path3271-0" /><path
       d="m 1242503.3,1619791.5 v 10416.8 h 5208.3 5208.4 v -10416.8 h -5208.4 z"
       style="display:inline;stroke-width:1811.6"
       id="path3273-8" /><path
       d="m 1252920,1619791.5 v 10416.8 h 5208.3 5208.4 v -10416.8 h -5208.4 z"
       style="display:inline;stroke-width:1811.6"
       id="path3274-8" /><path
       d="m 1221670,1609374.8 v 10416.8 h 5208.3 5208.4 v -10416.8 h -5208.4 z"
       style="display:inline;stroke-width:1811.6"
       id="path3281-74" /><path
       d="m 1221670,1619791.5 v 10416.8 h 5208.3 5208.4 v -10416.8 h -5208.4 z"
       style="display:inline;stroke-width:1811.6"
       id="path3296-2" /><path
       d="m 1263336.6,1619791.5 v 10416.8 h 5208.3 5208.4 v -10416.8 h -5208.4 z"
       style="display:inline;stroke-width:1811.6"
       id="path3298-0" /><path
       d="m 1263336.6,1598958 v 10416.8 h 5208.3 5208.4 V 1598958 h -5208.4 z"
       style="display:inline;stroke-width:1811.6"
       id="path3299-6" /><path
       d="m 1221670,1598958.2 v 10416.8 h 5208.3 5208.4 v -10416.8 h -5208.4 z"
       style="display:inline;stroke-width:1811.6"
       id="path3302-8" /><path
       d="m 1263336.7,1609374.8 v 10416.8 h 5208.3 5208.4 v -10416.8 h -5208.4 z"
       style="display:inline;stroke-width:1811.6"
       id="path3134-5" /><path
       style="fill:#fbfef8;fill-opacity:1;stroke-width:993.189"
       d="m 1252920,1614583.1 v -5208.3 h 5208.3 5208.3 v 5208.3 5208.4 h -5208.3 -5208.3 z"
       id="path3356-4" /><path
       style="fill:#fbfef8;fill-opacity:1;stroke-width:993.191"
       d="m 1252920,1604166.5 v -5208.3 h 5208.3 5208.3 v 5208.3 5208.4 h -5208.3 -5208.3 z"
       id="path3357-0" /><path
       style="fill:#fbfef8;fill-opacity:1;stroke-width:993.196"
       d="m 1242503.3,1604166.5 v -5208.3 h 5208.3 5208.4 v 5208.3 5208.4 h -5208.4 -5208.3 z"
       id="path3358-0" /><path
       style="fill:#fbfef8;fill-opacity:1;stroke-width:993.191"
       d="m 1252920,1593749.8 v -5208.3 h 5208.3 5208.3 v 5208.3 5208.4 h -5208.3 -5208.3 z"
       id="path4" /><path
       d="m 1065420,1557291.4 v 10416.8 h 5208.3 5208.4 v -10416.8 h -5208.4 z"
       style="display:inline;stroke-width:1811.6"
       id="path3241-4-1" /><path
       d="m 1107086.6,1567708.2 v 10416.7 h 5208.3 5208.4 v -10416.7 h -5208.4 z"
       style="display:inline;stroke-width:1811.6"
       id="path3242-8-3" /><path
       d="m 1107086.7,1578124.8 v 10416.7 h 5208.3 5208.4 v -10416.7 h -5208.4 z"
       style="display:inline;stroke-width:1811.6"
       id="path3243-5-9" /><path
       d="m 1065420,1578124.8 v 10416.7 h 5208.3 5208.4 v -10416.7 h -5208.4 z"
       style="display:inline;stroke-width:1811.6"
       id="path3244-4-1" /><path
       d="m 1065420,1588541.5 v 10416.7 h 5208.3 5208.4 v -10416.7 h -5208.4 z"
       style="display:inline;stroke-width:1811.6"
       id="path3245-5-8" /><path
       d="m 1107086.6,1588541.5 v 10416.7 h 5208.3 5208.4 v -10416.7 h -5208.4 z"
       style="display:inline;stroke-width:1811.6"
       id="path3246-6-2" /><path
       d="m 1065420,1546874.8 v 10416.7 h 5208.3 5208.4 v -10416.7 h -5208.4 z"
       style="display:inline;stroke-width:1811.6"
       id="path3340-6-8" /><path
       d="m 1107086.6,1546874.8 v 10416.7 h 5208.3 5208.4 v -10416.7 h -5208.4 z"
       style="display:inline;stroke-width:1811.6"
       id="path3341-0-6" /><path
       d="m 1055003.3,1546874.9 v 10416.7 h 5208.3 5208.4 v -10416.7 h -5208.4 z"
       style="display:inline;stroke-width:1811.6"
       id="path3342-3-6" /><path
       d="m 1065420,1536458.2 v 10416.7 h 5208.3 5208.4 v -10416.7 h -5208.4 z"
       style="display:inline;stroke-width:1811.6"
       id="path3343-8-6" /><path
       d="m 1075836.7,1526041.5 v 10416.7 h 5208.3 5208.4 v -10416.7 h -5208.4 z"
       style="display:inline;stroke-width:1811.6"
       id="path3344-0-3" /><path
       d="m 1086253.3,1526041.5 v 10416.7 h 5208.3 5208.4 v -10416.7 h -5208.4 z"
       style="display:inline;stroke-width:1811.6"
       id="path3345-9-6" /><path
       d="m 1096670,1526041.5 v 10416.7 h 5208.3 5208.4 v -10416.7 h -5208.4 z"
       style="display:inline;stroke-width:1811.6"
       id="path3346-0-1" /><path
       d="m 1107086.7,1536458.2 v 10416.7 h 5208.3 5208.4 v -10416.7 h -5208.4 z"
       style="display:inline;stroke-width:1811.6"
       id="path3347-7-6" /><path
       d="m 1107086.6,1557291.5 v 10416.7 h 5208.3 5208.4 v -10416.7 h -5208.4 z"
       style="display:inline;stroke-width:1811.6"
       id="path3248-9-2" /><path
       d="m 1065420,1567708.2 v 10416.7 h 5208.3 5208.4 v -10416.7 h -5208.4 z"
       style="display:inline;stroke-width:1811.6"
       id="path3249-8-3" /><path
       d="m 1065420,1609374.8 v 10416.8 h 5208.3 5208.4 v -10416.8 h -5208.4 z"
       style="display:inline;stroke-width:1811.6"
       id="path3281-7-9" /><path
       d="m 1107086.7,1598958 v 10416.8 h 5208.3 5208.3 V 1598958 h -5208.3 z"
       style="display:inline;stroke-width:1811.59"
       id="path3299-7-7" /><path
       d="m 1065420,1598958.2 v 10416.8 h 5208.3 5208.4 v -10416.8 h -5208.4 z"
       style="display:inline;stroke-width:1811.6"
       id="path3302-0-0" /><path
       d="m 1107086.7,1609374.8 v 10416.8 h 5208.3 5208.4 v -10416.8 h -5208.4 z"
       style="display:inline;stroke-width:1811.6"
       id="path3134-1-2" /><path
       style="fill:#fbfef8;fill-opacity:1;stroke-width:993.196"
       d="m 1096670,1614583.1 v -5208.3 h 5208.3 5208.4 v 5208.3 5208.4 h -5208.4 -5208.3 z"
       id="path3356-0-6" /><path
       style="fill:#fbfef8;fill-opacity:1;stroke-width:993.196"
       d="m 1096670,1604166.6 v -5208.3 h 5208.3 5208.4 v 5208.3 5208.4 h -5208.4 -5208.3 z"
       id="path3357-2-0" /><path
       style="fill:#fbfef8;fill-opacity:1;stroke-width:993.196"
       d="m 1086253.3,1604166.5 v -5208.3 h 5208.4 5208.3 v 5208.3 5208.4 h -5208.3 -5208.4 z"
       id="path3358-5-0" /><path
       style="fill:#fbfef8;fill-opacity:1;stroke-width:993.191"
       d="m 1096670,1593749.9 v -5208.3 h 5208.3 5208.3 v 5208.3 5208.4 h -5208.3 -5208.3 z"
       id="path1" /><path
       style="fill:#e1ac3a;fill-opacity:1;stroke-width:993.191"
       d="m 1075836.8,1562499.7 v -5208.3 h 5208.3 5208.3 v 5208.3 5208.4 h -5208.3 -5208.3 z"
       id="path6" /><path
       style="fill:#e1ac3a;fill-opacity:1;stroke-width:993.191"
       d="m 1086253.4,1562499.7 v -5208.3 h 5208.3 5208.3 v 5208.3 5208.4 h -5208.3 -5208.3 z"
       id="path49" /><path
       style="fill:#e1ac3a;fill-opacity:1;stroke-width:993.191"
       d="m 1096670,1562499.8 v -5208.3 h 5208.3 5208.3 v 5208.3 5208.4 h -5208.3 -5208.3 z"
       id="path157" /><path
       style="fill:#e1ac3a;fill-opacity:1;stroke-width:993.191"
       d="m 1075836.7,1541666.5 v -5208.3 h 5208.3 5208.3 v 5208.3 5208.4 h -5208.3 -5208.3 z"
       id="path158" /><path
       style="fill:#e1ac3a;fill-opacity:1;stroke-width:993.191"
       d="m 1086253.3,1541666.5 v -5208.3 h 5208.3 5208.3 v 5208.3 5208.4 h -5208.3 -5208.3 z"
       id="path159" /><path
       style="fill:#e1ac3a;fill-opacity:1;stroke-width:993.191"
       d="m 1096669.9,1541666.5 v -5208.3 h 5208.3 5208.3 v 5208.3 5208.4 h -5208.3 -5208.3 z"
       id="path160" /><path
       style="fill:#e1ac3a;fill-opacity:1;stroke-width:993.191"
       d="m 1096669.9,1552083.2 v -5208.3 h 5208.3 5208.3 v 5208.3 5208.4 h -5208.3 -5208.3 z"
       id="path161" /><path
       style="fill:#e1ac3a;fill-opacity:1;stroke-width:993.191"
       d="m 1086253.3,1552083.2 v -5208.3 h 5208.3 5208.3 v 5208.3 5208.4 h -5208.3 -5208.3 z"
       id="path162" /><path
       style="fill:#e1ac3a;fill-opacity:1;stroke-width:993.191"
       d="m 1075836.7,1552083.2 v -5208.3 h 5208.3 5208.3 v 5208.3 5208.4 h -5208.3 -5208.3 z"
       id="path163" /><path
       style="fill:#e1ac3a;fill-opacity:1;stroke-width:993.191"
       d="m 1232086.7,1541666.5 v -5208.3 h 5208.3 5208.3 v 5208.3 5208.4 h -5208.3 -5208.3 z"
       id="path225" /><path
       style="fill:#e1ac3a;fill-opacity:1;stroke-width:993.191"
       d="m 1242503.3,1541666.5 v -5208.3 h 5208.3 5208.3 v 5208.3 5208.4 h -5208.3 -5208.3 z"
       id="path226" /><path
       style="fill:#e1ac3a;fill-opacity:1;stroke-width:993.191"
       d="m 1252920,1541666.5 v -5208.3 h 5208.3 5208.3 v 5208.3 5208.4 h -5208.3 -5208.3 z"
       id="path227" /><path
       style="fill:#e1ac3a;fill-opacity:1;stroke-width:993.191"
       d="m 1252920.1,1562499.8 v -5208.3 h 5208.3 5208.3 v 5208.3 5208.4 h -5208.3 -5208.3 z"
       id="path228" /><path
       style="fill:#e1ac3a;fill-opacity:1;stroke-width:993.191"
       d="m 1242503.4,1562499.8 v -5208.3 h 5208.3 5208.3 v 5208.3 5208.4 h -5208.3 -5208.3 z"
       id="path229" /><path
       style="fill:#e1ac3a;fill-opacity:1;stroke-width:993.191"
       d="m 1232086.8,1562499.8 v -5208.3 h 5208.3 5208.3 v 5208.3 5208.4 h -5208.3 -5208.3 z"
       id="path230" /><path
       style="fill:#e1ac3a;fill-opacity:1;stroke-width:993.191"
       d="m 1232086.7,1552083.2 v -5208.3 h 5208.3 5208.3 v 5208.3 5208.4 h -5208.3 -5208.3 z"
       id="path231" /><path
       style="fill:#e1ac3a;fill-opacity:1;stroke-width:993.191"
       d="m 1242503.3,1552083.2 v -5208.3 h 5208.3 5208.3 v 5208.3 5208.4 h -5208.3 -5208.3 z"
       id="path232" /><path
       style="fill:#e1ac3a;fill-opacity:1;stroke-width:993.191"
       d="m 1252920,1552083.1 v -5208.3 h 5208.3 5208.3 v 5208.3 5208.4 h -5208.3 -5208.3 z"
       id="path233" /><path
       style="fill:#eecf8e;fill-opacity:1;stroke-width:993.191"
       d="m 1096670,1583333.3 v -5208.3 h 5208.3 5208.3 v 5208.3 5208.4 h -5208.3 -5208.3 z"
       id="path164" /><path
       style="fill:#eecf8e;fill-opacity:1;stroke-width:993.191"
       d="m 1096670,1572916.5 v -5208.3 h 5208.3 5208.3 v 5208.3 5208.4 h -5208.3 -5208.3 z"
       id="path165" /><path
       style="fill:#eecf8e;fill-opacity:1;stroke-width:993.191"
       d="m 1086253.4,1572916.4 v -5208.3 h 5208.3 5208.3 v 5208.3 5208.4 h -5208.3 -5208.3 z"
       id="path216" /><path
       style="fill:#eecf8e;fill-opacity:1;stroke-width:993.191"
       d="m 1075836.7,1572916.5 v -5208.3 h 5208.3 5208.3 v 5208.3 5208.4 h -5208.3 -5208.3 z"
       id="path217" /><path
       style="fill:#eecf8e;fill-opacity:1;stroke-width:993.191"
       d="m 1086253.4,1583333.1 v -5208.3 h 5208.3 5208.3 v 5208.3 5208.4 h -5208.3 -5208.3 z"
       id="path218" /><path
       style="fill:#eecf8e;fill-opacity:1;stroke-width:993.191"
       d="m 1075836.7,1583333.2 v -5208.3 h 5208.3 5208.3 v 5208.3 5208.4 h -5208.3 -5208.3 z"
       id="path219" /><path
       style="fill:#eecf8e;fill-opacity:1;stroke-width:993.191"
       d="m 1086253.4,1593749.9 v -5208.3 h 5208.3 5208.3 v 5208.3 5208.4 h -5208.3 -5208.3 z"
       id="path220" /><path
       style="fill:#eecf8e;fill-opacity:1;stroke-width:993.191"
       d="m 1086253.4,1614583.3 v -5208.3 h 5208.3 5208.3 v 5208.3 5208.4 h -5208.3 -5208.3 z"
       id="path221" /><path
       style="fill:#eecf8e;fill-opacity:1;stroke-width:993.191"
       d="m 1075836.7,1593749.8 v -5208.3 h 5208.3 5208.3 v 5208.3 5208.4 h -5208.3 -5208.3 z"
       id="path222" /><path
       style="fill:#eecf8e;fill-opacity:1;stroke-width:993.191"
       d="m 1075836.7,1604166.6 v -5208.3 h 5208.3 5208.3 v 5208.3 5208.4 h -5208.3 -5208.3 z"
       id="path223" /><path
       style="fill:#eecf8e;fill-opacity:1;stroke-width:993.191"
       d="m 1075836.7,1614583.2 v -5208.3 h 5208.3 5208.3 v 5208.3 5208.4 h -5208.3 -5208.3 z"
       id="path224" /><path
       style="fill:#eecf8e;fill-opacity:1;stroke-width:993.191"
       d="m 1242503.4,1593749.8 v -5208.3 h 5208.2 5208.4 v 5208.3 5208.4 h -5208.4 -5208.2 z"
       id="path234" /><path
       style="fill:#eecf8e;fill-opacity:1;stroke-width:993.191"
       d="m 1242503.4,1614583.1 v -5208.3 h 5208.2 5208.4 v 5208.3 5208.4 h -5208.4 -5208.2 z"
       id="path235" /><path
       style="fill:#eecf8e;fill-opacity:1;stroke-width:993.191"
       d="m 1232086.9,1572916.5 v -5208.3 h 5208.2 5208.4 v 5208.3 5208.4 h -5208.4 -5208.2 z"
       id="path236" /><path
       style="fill:#eecf8e;fill-opacity:1;stroke-width:993.191"
       d="m 1242503.5,1572916.5 v -5208.3 h 5208.2 5208.4 v 5208.3 5208.4 h -5208.4 -5208.2 z"
       id="path237" /><path
       style="fill:#eecf8e;fill-opacity:1;stroke-width:993.191"
       d="m 1252920.2,1572916.5 v -5208.3 h 5208.2 5208.4 v 5208.3 5208.4 h -5208.4 -5208.2 z"
       id="path238" /><path
       style="fill:#eecf8e;fill-opacity:1;stroke-width:993.191"
       d="m 1252920.1,1583333.1 v -5208.3 h 5208.2 5208.4 v 5208.3 5208.4 h -5208.4 -5208.2 z"
       id="path239" /><path
       style="fill:#eecf8e;fill-opacity:1;stroke-width:993.191"
       d="m 1242503.5,1583333.2 v -5208.3 h 5208.2 5208.4 v 5208.3 5208.4 h -5208.4 -5208.2 z"
       id="path240" /><path
       style="fill:#eecf8e;fill-opacity:1;stroke-width:993.191"
       d="m 1232086.9,1583333.2 v -5208.3 h 5208.2 5208.4 v 5208.3 5208.4 h -5208.4 -5208.2 z"
       id="path241" /><path
       style="fill:#eecf8e;fill-opacity:1;stroke-width:993.191"
       d="m 1232086.7,1614583.2 v -5208.3 h 5208.2 5208.4 v 5208.3 5208.4 h -5208.4 -5208.2 z"
       id="path242" /><path
       style="fill:#eecf8e;fill-opacity:1;stroke-width:993.191"
       d="m 1232086.7,1604166.5 v -5208.3 h 5208.2 5208.4 v 5208.3 5208.4 h -5208.4 -5208.2 z"
       id="path243" /><path
       style="fill:#eecf8e;fill-opacity:1;stroke-width:993.191"
       d="m 1232086.8,1593749.8 v -5208.3 h 5208.2 5208.4 v 5208.3 5208.4 h -5208.4 -5208.2 z"
       id="path3369-2-9" /></g></svg>
