<?xml version="1.0" encoding="UTF-8" standalone="no"?>
<!-- Created with Inkscape (http://www.inkscape.org/) -->

<svg
   width="200"
   height="100"
   viewBox="0 0 2083333.2 1041666.6"
   version="1.1"
   id="svg1"
   sodipodi:docname="randomize.svg"
   inkscape:version="1.4 (e7c3feb1, 2024-10-09)"
   xml:space="preserve"
   inkscape:export-filename="Test1.png"
   inkscape:export-xdpi="83.842796"
   inkscape:export-ydpi="83.842796"
   xmlns:inkscape="http://www.inkscape.org/namespaces/inkscape"
   xmlns:sodipodi="http://sodipodi.sourceforge.net/DTD/sodipodi-0.dtd"
   xmlns="http://www.w3.org/2000/svg"
   xmlns:svg="http://www.w3.org/2000/svg"><sodipodi:namedview
     id="namedview1"
     pagecolor="#ffffff"
     bordercolor="#000000"
     borderopacity="0.25"
     inkscape:showpageshadow="2"
     inkscape:pageopacity="0.0"
     inkscape:pagecheckerboard="0"
     inkscape:deskcolor="#d1d1d1"
     inkscape:document-units="px"
     inkscape:zoom="2.8284271"
     inkscape:cx="98.818173"
     inkscape:cy="44.017397"
     inkscape:window-width="1200"
     inkscape:window-height="750"
     inkscape:window-x="132"
     inkscape:window-y="25"
     inkscape:window-maximized="0"
     inkscape:current-layer="g1"
     showguides="false"
     showgrid="true"><inkscape:grid
       id="grid128"
       units="px"
       originx="0"
       originy="0"
       spacingx="10416.666"
       spacingy="10416.666"
       empcolor="#0099e5"
       empopacity="0.30196078"
       color="#0099e5"
       opacity="0.14901961"
       empspacing="5"
       enabled="true"
       visible="true" /></sodipodi:namedview><defs
     id="defs1"><inkscape:path-effect
       effect="bspline"
       id="path-effect7"
       is_visible="true"
       lpeversion="1.3"
       weight="33.333333"
       steps="2"
       helper_size="0"
       apply_no_weight="true"
       apply_with_weight="true"
       only_selected="false"
       uniform="false" /></defs><g
     inkscape:label="Background"
     inkscape:groupmode="layer"
     id="layer1"
     transform="translate(-2010416.6,802083.27)"
     style="display:inline" /><g
     id="g1"
     inkscape:label="Button"><g
       id="g202"
       inkscape:label="Button"
       transform="matrix(6.4285713,0,0,6.2499951,-2440475.9,-3059892.8)"><path
         d="m 395833.31,562499.9 v 10416.7 h 5208.3 5208.4 v -10416.7 h -5208.4 z"
         style="display:inline;stroke-width:1811.6"
         id="path1" /><path
         d="m 395833.31,552083.2 v 10416.7 h 5208.3 5208.4 v -10416.7 h -5208.4 z"
         style="display:inline;stroke-width:1811.6"
         id="path2" /><path
         d="m 406249.94,541666.6 v 10416.7 h 5208.3 5208.4 v -10416.7 h -5208.4 z"
         style="display:inline;stroke-width:1811.6"
         id="path50" /><path
         d="m 406249.94,593749.93 v 10416.7 h 5208.3 5208.4 v -10416.7 h -5208.4 z"
         style="display:inline;stroke-width:1811.6"
         id="path55" /><path
         d="m 416666.61,604166.6 v 10416.7 h 5208.3 5208.4 v -10416.7 h -5208.4 z"
         style="display:inline;stroke-width:1811.6"
         id="path59" /><path
         d="m 416666.61,531249.93 v 10416.7 h 5208.3 5208.4 v -10416.7 h -5208.4 z"
         style="display:inline;stroke-width:1811.6"
         id="path61" /><path
         d="m 427083.27,531249.93 v 10416.7 h 5208.3 5208.4 v -10416.7 h -5208.4 z"
         style="display:inline;stroke-width:1811.6"
         id="path65" /><path
         d="m 427083.27,604166.6 v 10416.7 h 5208.3 5208.4 v -10416.7 h -5208.4 z"
         style="display:inline;stroke-width:1811.6"
         id="path71" /><path
         d="m 437499.94,604166.6 v 10416.7 h 5208.3 5208.4 v -10416.7 h -5208.4 z"
         style="display:inline;stroke-width:1811.6"
         id="path83" /><path
         d="m 437499.94,531249.93 v 10416.7 h 5208.3 5208.4 v -10416.7 h -5208.4 z"
         style="display:inline;stroke-width:1811.6"
         id="path113" /><path
         d="m 447916.6,531249.93 v 10416.7 h 5208.3 5208.4 v -10416.7 h -5208.4 z"
         style="display:inline;stroke-width:1811.6"
         id="path143" /><path
         d="m 447916.6,604166.6 v 10416.7 h 5208.3 5208.4 v -10416.7 h -5208.4 z"
         style="display:inline;stroke-width:1811.6"
         id="path144" /><path
         d="m 458333.27,604166.6 v 10416.7 h 5208.3 5208.4 v -10416.7 h -5208.4 z"
         style="display:inline;stroke-width:1811.6"
         id="path145" /><path
         d="m 458333.27,531249.93 v 10416.7 h 5208.3 5208.4 v -10416.7 h -5208.4 z"
         style="display:inline;stroke-width:1811.6"
         id="path146" /><path
         d="m 468749.94,531249.93 v 10416.7 h 5208.3 5208.4 v -10416.7 h -5208.4 z"
         style="display:inline;stroke-width:1811.6"
         id="path147" /><path
         d="m 468749.94,604166.6 v 10416.7 h 5208.3 5208.4 v -10416.7 h -5208.4 z"
         style="display:inline;stroke-width:1811.6"
         id="path148" /><path
         d="m 479166.6,604166.6 v 10416.7 h 5208.3 5208.4 v -10416.7 h -5208.4 z"
         style="display:inline;stroke-width:1811.6"
         id="path149" /><path
         d="m 479166.6,531249.93 v 10416.7 h 5208.3 5208.4 v -10416.7 h -5208.4 z"
         style="display:inline;stroke-width:1811.6"
         id="path150" /><path
         d="m 489583.3,531249.93 v 10416.7 h 5208.3 5208.4 v -10416.7 h -5208.4 z"
         style="display:inline;stroke-width:1811.6"
         id="path151" /><path
         d="m 489583.3,604166.6 v 10416.7 h 5208.3 5208.4 v -10416.7 h -5208.4 z"
         style="display:inline;stroke-width:1811.6"
         id="path152" /><path
         d="m 500000,604166.6 v 10416.7 h 5208.3 5208.4 v -10416.7 h -5208.4 z"
         style="display:inline;stroke-width:1811.6"
         id="path153" /><path
         d="m 500000,531249.93 v 10416.7 h 5208.3 5208.4 v -10416.7 h -5208.4 z"
         style="display:inline;stroke-width:1811.6"
         id="path154" /><path
         d="m 510416.7,531249.93 v 10416.7 h 5208.3 5208.4 v -10416.7 H 515625 Z"
         style="display:inline;stroke-width:1811.6"
         id="path155" /><path
         d="m 510416.7,604166.6 v 10416.7 h 5208.3 5208.4 V 604166.6 H 515625 Z"
         style="display:inline;stroke-width:1811.6"
         id="path156" /><path
         d="m 520833.27,531249.97 v 10416.7 h 5208.3 5208.4 v -10416.7 h -5208.4 z"
         style="display:inline;stroke-width:1811.6"
         id="path157" /><path
         d="m 520833.27,604166.63 v 10416.7 h 5208.3 5208.4 v -10416.7 h -5208.4 z"
         style="display:inline;stroke-width:1811.6"
         id="path158" /><path
         d="m 531249.93,604166.63 v 10416.7 h 5208.3 5208.4 v -10416.7 h -5208.4 z"
         style="display:inline;stroke-width:1811.6"
         id="path159" /><path
         d="m 531249.93,531249.97 v 10416.7 h 5208.3 5208.4 v -10416.7 h -5208.4 z"
         style="display:inline;stroke-width:1811.6"
         id="path160" /><path
         d="m 541666.6,531249.97 v 10416.7 h 5208.3 5208.4 v -10416.7 h -5208.4 z"
         style="display:inline;stroke-width:1811.6"
         id="path161" /><path
         d="m 541666.6,604166.63 v 10416.7 h 5208.3 5208.4 v -10416.7 h -5208.4 z"
         style="display:inline;stroke-width:1811.6"
         id="path162" /><path
         d="m 552083.26,604166.63 v 10416.7 h 5208.3 5208.4 v -10416.7 h -5208.4 z"
         style="display:inline;stroke-width:1811.6"
         id="path163" /><path
         d="m 552083.26,531249.97 v 10416.7 h 5208.3 5208.4 v -10416.7 h -5208.4 z"
         style="display:inline;stroke-width:1811.6"
         id="path164" /><path
         d="m 562499.93,531249.97 v 10416.7 h 5208.3 5208.4 v -10416.7 h -5208.4 z"
         style="display:inline;stroke-width:1811.6"
         id="path165" /><path
         d="m 562499.93,604166.63 v 10416.7 h 5208.3 5208.4 v -10416.7 h -5208.4 z"
         style="display:inline;stroke-width:1811.6"
         id="path166" /><path
         d="m 604166.59,531249.97 v 10416.7 h 5208.3 5208.4 v -10416.7 h -5208.4 z"
         style="display:inline;stroke-width:1811.6"
         id="path167" /><path
         d="m 614583.33,604166.63 v 10416.7 h 5208.3 5208.4 v -10416.7 h -5208.4 z"
         style="display:inline;stroke-width:1811.6"
         id="path168" /><path
         d="m 624999.93,604166.6 v 10416.7 h 5208.3 5208.4 v -10416.7 h -5208.4 z"
         style="display:inline;stroke-width:1811.6"
         id="path169" /><path
         d="m 645833.3,531249.9 v 10416.7 h 5208.3 5208.4 v -10416.7 h -5208.4 z"
         style="display:inline;stroke-width:1811.6"
         id="path170" /><path
         d="m 645833.26,604166.59 v 10416.7 h 5208.3 5208.4 v -10416.7 h -5208.4 z"
         style="display:inline;stroke-width:1811.6"
         id="path171" /><path
         d="m 635416.6,531249.9 v 10416.7 h 5208.3 5208.4 v -10416.7 h -5208.4 z"
         style="display:inline;stroke-width:1811.6"
         id="path172" /><path
         d="m 635416.56,604166.59 v 10416.7 h 5208.3 5208.4 v -10416.7 h -5208.4 z"
         style="display:inline;stroke-width:1811.6"
         id="path173" /><path
         d="m 624999.93,531249.93 v 10416.7 h 5208.3 5208.4 v -10416.7 h -5208.4 z"
         style="display:inline;stroke-width:1811.6"
         id="path174" /><path
         d="m 604166.63,604166.63 v 10416.7 h 5208.3 5208.4 v -10416.7 h -5208.4 z"
         style="display:inline;stroke-width:1811.6"
         id="path175" /><path
         d="m 572916.6,604166.63 v 10416.7 h 5208.3 5208.4 v -10416.7 h -5208.4 z"
         style="display:inline;stroke-width:1811.6"
         id="path176" /><path
         d="m 614583.26,531249.93 v 10416.7 h 5208.3 5208.4 v -10416.7 h -5208.4 z"
         style="display:inline;stroke-width:1811.6"
         id="path177" /><path
         d="m 593749.93,604166.63 v 10416.7 h 5208.3 5208.4 v -10416.7 h -5208.4 z"
         style="display:inline;stroke-width:1811.6"
         id="path178" /><path
         d="m 677083.26,552083.26 v 10416.7 h 5208.3 5208.4 v -10416.7 h -5208.4 z"
         style="display:inline;stroke-width:1811.6"
         id="path194" /><path
         d="m 656249.93,604166.59 v 10416.7 h 5208.3 5208.4 v -10416.7 h -5208.4 z"
         style="display:inline;stroke-width:1811.6"
         id="path195" /><path
         d="m 666666.59,593749.93 v 10416.7 h 5208.3 5208.4 v -10416.7 h -5208.4 z"
         style="display:inline;stroke-width:1811.6"
         id="path196" /><path
         d="m 677083.26,572916.56 v 10416.7 h 5208.3 5208.4 v -10416.7 h -5208.4 z"
         style="display:inline;stroke-width:1811.6"
         id="path197" /><path
         d="m 677083.26,562499.96 v 10416.7 h 5208.3 5208.4 v -10416.7 h -5208.4 z"
         style="display:inline;stroke-width:1811.6"
         id="path198" /><path
         d="m 677083.26,583333.26 v 10416.7 h 5208.3 5208.4 v -10416.7 h -5208.4 z"
         style="display:inline;stroke-width:1811.6"
         id="path199" /><path
         d="m 666666.59,541666.63 v 10416.7 h 5208.3 5208.4 v -10416.7 h -5208.4 z"
         style="display:inline;stroke-width:1811.6"
         id="path200" /><path
         d="m 656250,531249.9 v 10416.7 h 5208.3 5208.4 v -10416.7 h -5208.4 z"
         style="display:inline;stroke-width:1811.6"
         id="path201" /><path
         d="m 593749.96,531249.97 v 10416.7 h 5208.3 5208.4 v -10416.7 h -5208.4 z"
         style="display:inline;stroke-width:1811.6"
         id="path181" /><path
         d="m 583333.3,604166.63 v 10416.7 h 5208.3 5208.4 v -10416.7 h -5208.4 z"
         style="display:inline;stroke-width:1811.6"
         id="path182" /><path
         d="m 583333.26,531249.97 v 10416.7 h 5208.3 5208.4 v -10416.7 h -5208.4 z"
         style="display:inline;stroke-width:1811.6"
         id="path186" /><path
         d="m 572916.63,531249.97 v 10416.7 h 5208.3 5208.4 v -10416.7 h -5208.4 z"
         style="display:inline;stroke-width:1811.6"
         id="path28-8" /><path
         d="m 395833.31,572916.6 v 10416.7 h 5208.3 5208.4 v -10416.7 h -5208.4 z"
         style="display:inline;stroke-width:1811.6"
         id="path28-2" /><path
         d="m 395833.31,583333.26 v 10416.7 h 5208.3 5208.4 v -10416.7 h -5208.4 z"
         style="display:inline;stroke-width:1811.6"
         id="path28-9" /></g><path
       d="m 1778273.3,390625.19 v 65104.32 h 33481.8 33482.6 v -65104.32 h -33482.6 z"
       style="display:inline;fill:#e6a6a6;fill-opacity:1;stroke-width:11483.1"
       id="path40" /><path
       d="m 1778273.5,651041 v 65104.32 h 33481.9 33482.6 V 651041 h -33482.6 z"
       style="display:inline;fill:#e6a6a6;fill-opacity:1;stroke-width:11483.1"
       id="path41" /><path
       d="M 1778273.5,585936.7 V 651041 h 33481.9 33482.6 v -65104.3 h -33482.6 z"
       style="display:inline;fill:#e6a6a6;fill-opacity:1;stroke-width:11483.1"
       id="path42" /><path
       d="m 1778273.3,325520.87 v 65104.32 h 33481.8 33482.6 v -65104.32 h -33482.6 z"
       style="display:inline;fill:#e6a6a6;fill-opacity:1;stroke-width:11483.1"
       id="path43" /><path
       d="m 1845237.5,390624.74 v 65104.32 h 33482 33482.6 v -65104.32 h -33482.6 z"
       style="display:inline;fill:#e6a6a6;fill-opacity:1;stroke-width:11483.1"
       id="path44" /><path
       d="m 1845237.5,455729.06 v 65104.31 h 33482 33482.6 v -65104.31 h -33482.6 z"
       style="display:inline;fill:#e6a6a6;fill-opacity:1;stroke-width:11483.1"
       id="path45" /><path
       d="m 1845237.5,520832.77 v 65104.37 h 33482 33482.6 v -65104.37 h -33482.6 z"
       style="display:inline;fill:#e6a6a6;fill-opacity:1;stroke-width:11483.1"
       id="path46" /><path
       d="m 1845237.7,585936.93 v 65104.32 h 33482 33482.6 v -65104.32 h -33482.6 z"
       style="display:inline;fill:#e6a6a6;fill-opacity:1;stroke-width:11483.1"
       id="path47" /><path
       d="m 1242558,325520.68 v 65104.35 h 33481.9 33482.6 v -65104.35 h -33482.6 z"
       style="display:inline;fill:#e6a6a6;fill-opacity:1;stroke-width:11483.1"
       id="path48" /><path
       d="m 1309522.5,325520.68 v 65104.35 h 33481.8 33482.7 v -65104.35 h -33482.7 z"
       style="display:inline;fill:#e6a6a6;fill-opacity:1;stroke-width:11483.1"
       id="path49" /><path
       d="m 1376487,325520.68 v 65104.35 h 33481.9 33482.6 v -65104.35 h -33482.6 z"
       style="display:inline;fill:#e6a6a6;fill-opacity:1;stroke-width:11483.1"
       id="path51" /><path
       d="m 1443451.5,325520.68 v 65104.35 h 33482 33482.5 v -65104.35 h -33482.5 z"
       style="display:inline;fill:#e6a6a6;fill-opacity:1;stroke-width:11483.1"
       id="path52" /><path
       d="m 1510416,325520.68 v 65104.35 h 33481.9 33482.6 v -65104.35 h -33482.6 z"
       style="display:inline;fill:#e6a6a6;fill-opacity:1;stroke-width:11483.1"
       id="path53" /><path
       d="m 1577380.5,325520.68 v 65104.35 h 33481.9 33482.6 v -65104.35 h -33482.6 z"
       style="display:inline;fill:#e6a6a6;fill-opacity:1;stroke-width:11483.1"
       id="path54" /><path
       d="m 1644345,325520.68 v 65104.35 h 33481.9 33482.5 v -65104.35 h -33482.5 z"
       style="display:inline;fill:#e6a6a6;fill-opacity:1;stroke-width:11483.1"
       id="path56" /><path
       d="m 1711309.4,325520.68 v 65104.35 h 33482 33482.6 v -65104.35 h -33482.6 z"
       style="display:inline;fill:#e6a6a6;fill-opacity:1;stroke-width:11483.1"
       id="path57" /><path
       d="m 1711309.2,651041 v 65104.32 h 33481.9 33482.6 V 651041 h -33482.6 z"
       style="display:inline;fill:#e6a6a6;fill-opacity:1;stroke-width:11483.1"
       id="path58" /><path
       d="m 1644344.7,651041 v 65104.32 h 33481.9 33482.6 V 651041 h -33482.6 z"
       style="display:inline;fill:#e6a6a6;fill-opacity:1;stroke-width:11483.1"
       id="path60" /><path
       d="m 1242559.3,651041.25 v 65104.3 h 33481.9 33482.6 v -65104.3 h -33482.6 z"
       style="display:inline;fill:#e6a6a6;fill-opacity:1;stroke-width:11483.1"
       id="path62" /><path
       d="m 1309523.8,651041.25 v 65104.3 h 33481.8 33482.6 v -65104.3 h -33482.6 z"
       style="display:inline;fill:#e6a6a6;fill-opacity:1;stroke-width:11483.1"
       id="path63" /><path
       d="m 1376487.8,651041.25 v 65104.3 h 33482 33482.5 v -65104.3 h -33482.5 z"
       style="display:inline;fill:#e6a6a6;fill-opacity:1;stroke-width:11483.1"
       id="path64" /><path
       d="m 1443452.3,651041.25 v 65104.3 h 33482 33482.5 v -65104.3 h -33482.5 z"
       style="display:inline;fill:#e6a6a6;fill-opacity:1;stroke-width:11483.1"
       id="path66" /><path
       d="m 1510416.8,651041.25 v 65104.3 h 33481.9 33482.6 v -65104.3 h -33482.6 z"
       style="display:inline;fill:#e6a6a6;fill-opacity:1;stroke-width:11483.1"
       id="path67" /><path
       d="m 1577380.6,651041.05 v 65104.35 h 33482 33482.6 v -65104.35 h -33482.6 z"
       style="display:inline;fill:#e6a6a6;fill-opacity:1;stroke-width:11483.1"
       id="path68" /><path
       d="m 1175594.9,651041.25 v 65104.3 h 33481.9 33482.6 v -65104.3 h -33482.6 z"
       style="display:inline;fill:#e6a6a6;fill-opacity:1;stroke-width:11483.1"
       id="path91" /><path
       d="m 1175595.1,325520.68 v 65104.35 h 33481.9 33482.6 V 325520.68 H 1209077 Z"
       style="display:inline;fill:#e6a6a6;fill-opacity:1;stroke-width:11483.1"
       id="path92" /><path
       d="m 1108630.7,325521.13 v 65104.32 h 33481.9 33482.5 v -65104.32 h -33482.5 z"
       style="display:inline;fill:#e6a6a6;fill-opacity:1;stroke-width:11483.1"
       id="path93" /><path
       d="m 1108630.7,651041.25 v 65104.3 h 33481.9 33482.5 v -65104.3 h -33482.5 z"
       style="display:inline;fill:#e6a6a6;fill-opacity:1;stroke-width:11483.1"
       id="path94" /><path
       d="m 1041666.4,651041.25 v 65104.3 h 33481.9 33482.6 v -65104.3 h -33482.6 z"
       style="display:inline;fill:#e6a6a6;fill-opacity:1;stroke-width:11483.1"
       id="path95" /><path
       d="m 1041666.6,325520.68 v 65104.35 h 33481.9 33482.6 v -65104.35 h -33482.6 z"
       style="display:inline;fill:#e6a6a6;fill-opacity:1;stroke-width:11483.1"
       id="path96" /><path
       d="m 974702.4,325520.68 v 65104.35 h 33481.8 33482.6 v -65104.35 h -33482.6 z"
       style="display:inline;fill:#e6a6a6;fill-opacity:1;stroke-width:11483.1"
       id="path97" /><path
       d="m 974702.14,651041.25 v 65104.3 h 33481.86 33482.6 v -65104.3 H 1008184 Z"
       style="display:inline;fill:#e6a6a6;fill-opacity:1;stroke-width:11483.1"
       id="path98" /><path
       d="m 907737.85,651041.25 v 65104.3 h 33481.92 33482.63 v -65104.3 h -33482.63 z"
       style="display:inline;fill:#e6a6a6;fill-opacity:1;stroke-width:11483.1"
       id="path99" /><path
       d="m 907738.1,325520.68 v 65104.35 h 33481.93 33482.55 v -65104.35 h -33482.55 z"
       style="display:inline;fill:#e6a6a6;fill-opacity:1;stroke-width:11483.1"
       id="path100" /><path
       d="m 840774.18,325520.87 v 65104.32 h 33481.93 33482.59 v -65104.32 h -33482.59 z"
       style="display:inline;fill:#e6a6a6;fill-opacity:1;stroke-width:11483.1"
       id="path101" /><path
       d="m 840774.18,651041.05 v 65104.35 h 33481.93 33482.59 v -65104.35 h -33482.59 z"
       style="display:inline;fill:#e6a6a6;fill-opacity:1;stroke-width:11483.1"
       id="path102" /><path
       d="m 773809.71,651041.05 v 65104.35 h 33481.92 33482.55 v -65104.35 h -33482.55 z"
       style="display:inline;fill:#e6a6a6;fill-opacity:1;stroke-width:11483.1"
       id="path103" /><path
       d="m 773809.51,325520.68 v 65104.35 h 33481.92 33482.58 v -65104.35 h -33482.58 z"
       style="display:inline;fill:#e6a6a6;fill-opacity:1;stroke-width:11483.1"
       id="path104" /><path
       d="m 706845.21,325520.68 v 65104.35 h 33481.93 33482.57 v -65104.35 h -33482.57 z"
       style="display:inline;fill:#e6a6a6;fill-opacity:1;stroke-width:11483.1"
       id="path105" /><path
       d="m 706845.21,651041.05 v 65104.35 h 33481.93 33482.57 v -65104.35 h -33482.57 z"
       style="display:inline;fill:#e6a6a6;fill-opacity:1;stroke-width:11483.1"
       id="path106" /><path
       d="m 639880.74,651041.05 v 65104.35 h 33481.9 33482.57 v -65104.35 h -33482.57 z"
       style="display:inline;fill:#e6a6a6;fill-opacity:1;stroke-width:11483.1"
       id="path107" /><path
       d="m 572916.69,651041.05 v 65104.35 h 33481.92 33482.57 v -65104.35 h -33482.57 z"
       style="display:inline;fill:#e6a6a6;fill-opacity:1;stroke-width:11483.1"
       id="path108" /><path
       d="m 572916.69,325520.87 v 65104.32 h 33481.92 33482.57 v -65104.32 h -33482.57 z"
       style="display:inline;fill:#e6a6a6;fill-opacity:1;stroke-width:11483.1"
       id="path109" /><path
       d="m 639881.18,325520.87 v 65104.32 h 33481.91 33482.59 v -65104.32 h -33482.59 z"
       style="display:inline;fill:#e6a6a6;fill-opacity:1;stroke-width:11483.1"
       id="path110" /><path
       d="m 505952.19,325520.87 v 65104.32 h 33481.92 33482.58 v -65104.32 h -33482.58 z"
       style="display:inline;fill:#e6a6a6;fill-opacity:1;stroke-width:11483.1"
       id="path111" /><path
       d="m 438987.65,325520.87 v 65104.32 h 33481.99 33482.55 v -65104.32 h -33482.55 z"
       style="display:inline;fill:#e6a6a6;fill-opacity:1;stroke-width:11483.1"
       id="path112" /><path
       d="m 372023.15,325520.87 v 65104.32 h 33481.93 33482.57 v -65104.32 h -33482.57 z"
       style="display:inline;fill:#e6a6a6;fill-opacity:1;stroke-width:11483.1"
       id="path114" /><path
       d="m 305058.65,325520.87 v 65104.32 h 33481.93 33482.57 v -65104.32 h -33482.57 z"
       style="display:inline;fill:#e6a6a6;fill-opacity:1;stroke-width:11483.1"
       id="path115" /><path
       d="m 238094.18,325520.87 v 65104.32 h 33481.92 33482.55 V 325520.87 H 271576.1 Z"
       style="display:inline;fill:#e6a6a6;fill-opacity:1;stroke-width:11483.1"
       id="path116" /><path
       d="m 238095.28,390625.03 v 65104.29 h 33481.93 33482.57 v -65104.29 h -33482.57 z"
       style="display:inline;fill:#e6a6a6;fill-opacity:1;stroke-width:11483.1"
       id="path117" /><path
       d="m 171130.79,390625.03 v 65104.29 h 33481.92 33482.57 v -65104.29 h -33482.57 z"
       style="display:inline;fill:#e6a6a6;fill-opacity:1;stroke-width:11483.1"
       id="path118" /><path
       d="m 505952.19,651041.05 v 65104.35 h 33481.92 33482.58 v -65104.35 h -33482.58 z"
       style="display:inline;fill:#e6a6a6;fill-opacity:1;stroke-width:11483.1"
       id="path119" /><path
       d="m 438987.65,651041.05 v 65104.35 h 33481.99 33482.55 v -65104.35 h -33482.55 z"
       style="display:inline;fill:#e6a6a6;fill-opacity:1;stroke-width:11483.1"
       id="path120" /><path
       d="m 372023.15,651041.05 v 65104.35 h 33481.93 33482.57 v -65104.35 h -33482.57 z"
       style="display:inline;fill:#e6a6a6;fill-opacity:1;stroke-width:11483.1"
       id="path121" /><path
       d="m 305058.65,651041.05 v 65104.35 h 33481.93 33482.57 v -65104.35 h -33482.57 z"
       style="display:inline;fill:#e6a6a6;fill-opacity:1;stroke-width:11483.1"
       id="path122" /><path
       d="m 238094.18,651041.05 v 65104.35 h 33481.92 33482.55 V 651041.05 H 271576.1 Z"
       style="display:inline;fill:#e6a6a6;fill-opacity:1;stroke-width:11483.1"
       id="path123" /><path
       d="m 171130.79,455729.32 v 65104.34 h 33481.92 33482.57 v -65104.34 h -33482.57 z"
       style="display:inline;fill:#e6a6a6;fill-opacity:1;stroke-width:11483.1"
       id="path124" /><path
       d="M 171130.79,520833.66 V 585938 h 33481.92 33482.57 v -65104.34 h -33482.57 z"
       style="display:inline;fill:#e6a6a6;fill-opacity:1;stroke-width:11483.1"
       id="path125" /><path
       d="m 171130.79,585938 v 65104.3 h 33481.92 33482.57 V 585938 h -33482.57 z"
       style="display:inline;fill:#e6a6a6;fill-opacity:1;stroke-width:11483.1"
       id="path126" /><path
       d="m 238095.28,585938 v 65104.3 h 33481.93 33482.57 V 585938 h -33482.57 z"
       style="display:inline;fill:#e6a6a6;fill-opacity:1;stroke-width:11483.1"
       id="path127" /><path
       d="m 1778274,455729.32 v 65104.26 h 33481.9 33482.5 v -65104.26 h -33482.5 z"
       style="display:inline;fill:#eec1c1;fill-opacity:1;stroke-width:11483.1"
       id="path4" /><path
       d="m 1778273.3,520832.64 v 65104.29 h 33481.8 33482.6 v -65104.29 h -33482.6 z"
       style="display:inline;fill:#eec1c1;fill-opacity:1;stroke-width:11483.1"
       id="path5" /><path
       d="m 1711309.2,585937.16 v 65104.28 h 33481.9 33482.6 v -65104.28 h -33482.6 z"
       style="display:inline;fill:#eec1c1;fill-opacity:1;stroke-width:11483.1"
       id="path6" /><path
       d="m 1242558.8,585937.16 v 65104.28 h 33482 33482.5 v -65104.28 h -33482.5 z"
       style="display:inline;fill:#eec1c1;fill-opacity:1;stroke-width:11483.1"
       id="path7" /><path
       d="m 1309523.3,585937.16 v 65104.28 h 33481.9 33482.6 v -65104.28 h -33482.6 z"
       style="display:inline;fill:#eec1c1;fill-opacity:1;stroke-width:11483.1"
       id="path8" /><path
       d="m 1376487.8,585937.16 v 65104.28 h 33482 33482.5 v -65104.28 h -33482.5 z"
       style="display:inline;fill:#eec1c1;fill-opacity:1;stroke-width:11483.1"
       id="path9" /><path
       d="m 1443452.3,585937.16 v 65104.28 h 33482 33482.5 v -65104.28 h -33482.5 z"
       style="display:inline;fill:#eec1c1;fill-opacity:1;stroke-width:11483.1"
       id="path10" /><path
       d="m 1510416.5,585937.16 v 65104.28 h 33482 33482.6 v -65104.28 h -33482.6 z"
       style="display:inline;fill:#eec1c1;fill-opacity:1;stroke-width:11483.1"
       id="path11" /><path
       d="m 1577380.9,585937.16 v 65104.28 h 33481.9 33482.6 v -65104.28 h -33482.6 z"
       style="display:inline;fill:#eec1c1;fill-opacity:1;stroke-width:11483.1"
       id="path12" /><path
       d="m 1644344.7,585937.16 v 65104.28 h 33481.9 33482.6 v -65104.28 h -33482.6 z"
       style="display:inline;fill:#eec1c1;fill-opacity:1;stroke-width:11483.1"
       id="path13" /><path
       d="m 1711309.4,390625.03 v 65104.22 h 33482 33482.6 v -65104.22 h -33482.6 z"
       style="display:inline;fill:#eec1c1;fill-opacity:1;stroke-width:11483.1"
       id="path14" /><path
       d="m 1644345,390625.03 v 65104.22 h 33481.9 33482.5 v -65104.22 h -33482.5 z"
       style="display:inline;fill:#eec1c1;fill-opacity:1;stroke-width:11483.1"
       id="path15" /><path
       d="m 1577380.5,390625.03 v 65104.22 h 33481.9 33482.6 v -65104.22 h -33482.6 z"
       style="display:inline;fill:#eec1c1;fill-opacity:1;stroke-width:11483.1"
       id="path16" /><path
       d="m 1510416,390625.03 v 65104.22 h 33481.9 33482.6 v -65104.22 h -33482.6 z"
       style="display:inline;fill:#eec1c1;fill-opacity:1;stroke-width:11483.1"
       id="path17" /><path
       d="m 1443451.5,390625.03 v 65104.22 h 33482 33482.5 v -65104.22 h -33482.5 z"
       style="display:inline;fill:#eec1c1;fill-opacity:1;stroke-width:11483.1"
       id="path18" /><path
       d="m 1376487,390625.03 v 65104.22 h 33481.9 33482.6 v -65104.22 h -33482.6 z"
       style="display:inline;fill:#eec1c1;fill-opacity:1;stroke-width:11483.1"
       id="path19" /><path
       d="m 1309522.5,390625.03 v 65104.22 h 33481.8 33482.7 v -65104.22 h -33482.7 z"
       style="display:inline;fill:#eec1c1;fill-opacity:1;stroke-width:11483.1"
       id="path20" /><path
       d="m 1242558,390625.03 v 65104.22 h 33481.9 33482.6 v -65104.22 h -33482.6 z"
       style="display:inline;fill:#eec1c1;fill-opacity:1;stroke-width:11483.1"
       id="path21" /><path
       d="m 1175595.1,390625.03 v 65104.22 h 33481.9 33482.6 V 390625.03 H 1209077 Z"
       style="display:inline;fill:#eec1c1;fill-opacity:1;stroke-width:11483.1"
       id="path69" /><path
       d="m 1108630.7,390625.45 v 65104.24 h 33481.9 33482.5 v -65104.24 h -33482.5 z"
       style="display:inline;fill:#eec1c1;fill-opacity:1;stroke-width:11483.1"
       id="path70" /><path
       d="m 1041666.6,390625.03 v 65104.22 h 33481.9 33482.6 v -65104.22 h -33482.6 z"
       style="display:inline;fill:#eec1c1;fill-opacity:1;stroke-width:11483.1"
       id="path72" /><path
       d="m 974702.4,390625.03 v 65104.22 h 33481.8 33482.6 v -65104.22 h -33482.6 z"
       style="display:inline;fill:#eec1c1;fill-opacity:1;stroke-width:11483.1"
       id="path73" /><path
       d="m 907738.1,390625.03 v 65104.22 h 33481.93 33482.55 v -65104.22 h -33482.55 z"
       style="display:inline;fill:#eec1c1;fill-opacity:1;stroke-width:11483.1"
       id="path74" /><path
       d="m 840774.18,390625.19 v 65104.27 h 33481.93 33482.59 v -65104.27 h -33482.59 z"
       style="display:inline;fill:#eec1c1;fill-opacity:1;stroke-width:11483.1"
       id="path75" /><path
       d="m 773809.51,390625.03 v 65104.22 h 33481.92 33482.58 v -65104.22 h -33482.58 z"
       style="display:inline;fill:#eec1c1;fill-opacity:1;stroke-width:11483.1"
       id="path76" /><path
       d="m 706845.21,390625.03 v 65104.22 h 33481.93 33482.57 v -65104.22 h -33482.57 z"
       style="display:inline;fill:#eec1c1;fill-opacity:1;stroke-width:11483.1"
       id="path77" /><path
       d="m 639880.98,390625.03 v 65104.22 h 33481.93 33482.57 v -65104.22 h -33482.57 z"
       style="display:inline;fill:#eec1c1;fill-opacity:1;stroke-width:11483.1"
       id="path78" /><path
       d="m 572916.84,390624.74 v 65104.28 h 33481.97 33482.53 v -65104.28 h -33482.53 z"
       style="display:inline;fill:#eec1c1;fill-opacity:1;stroke-width:11483.1"
       id="path79" /><path
       d="M 572916.69,585936.73 V 651041 h 33481.92 33482.57 v -65104.27 h -33482.57 z"
       style="display:inline;fill:#eec1c1;fill-opacity:1;stroke-width:11483.1"
       id="path80" /><path
       d="M 639881.18,585936.73 V 651041 h 33481.91 33482.59 v -65104.27 h -33482.59 z"
       style="display:inline;fill:#eec1c1;fill-opacity:1;stroke-width:11483.1"
       id="path81" /><path
       d="M 706845.68,585936.73 V 651041 h 33481.93 33482.55 v -65104.27 h -33482.55 z"
       style="display:inline;fill:#eec1c1;fill-opacity:1;stroke-width:11483.1"
       id="path82" /><path
       d="M 773810.16,585936.73 V 651041 h 33481.92 33482.57 v -65104.27 h -33482.57 z"
       style="display:inline;fill:#eec1c1;fill-opacity:1;stroke-width:11483.1"
       id="path84" /><path
       d="M 840774.65,585936.73 V 651041 h 33481.93 33482.57 v -65104.27 h -33482.57 z"
       style="display:inline;fill:#eec1c1;fill-opacity:1;stroke-width:11483.1"
       id="path85" /><path
       d="M 907739.15,585936.73 V 651041 h 33481.9 33482.62 v -65104.27 h -33482.62 z"
       style="display:inline;fill:#eec1c1;fill-opacity:1;stroke-width:11483.1"
       id="path86" /><path
       d="M 974703.67,585936.73 V 651041 h 33482.03 33482.4 v -65104.27 h -33482.4 z"
       style="display:inline;fill:#eec1c1;fill-opacity:1;stroke-width:11483.1"
       id="path87" /><path
       d="M 1041668.1,585936.73 V 651041 h 33482 33482.6 v -65104.27 h -33482.6 z"
       style="display:inline;fill:#eec1c1;fill-opacity:1;stroke-width:11483.1"
       id="path88" /><path
       d="M 1108632.7,585936.73 V 651041 h 33481.9 33482.6 v -65104.27 h -33482.6 z"
       style="display:inline;fill:#eec1c1;fill-opacity:1;stroke-width:11483.1"
       id="path89" /><path
       d="M 1175597.2,585936.73 V 651041 h 33481.9 33482.5 v -65104.27 h -33482.5 z"
       style="display:inline;fill:#eec1c1;fill-opacity:1;stroke-width:11483.1"
       id="path90" /><path
       d="m 505952.37,390624.83 v 65104.23 h 33481.92 33482.55 v -65104.23 h -33482.55 z"
       style="display:inline;fill:#eec1c1;fill-opacity:1;stroke-width:11483.1"
       id="path128" /><path
       d="m 438988.09,390624.83 v 65104.23 h 33481.93 33482.57 v -65104.23 h -33482.57 z"
       style="display:inline;fill:#eec1c1;fill-opacity:1;stroke-width:11483.1"
       id="path129" /><path
       d="m 372023.81,390624.83 v 65104.23 h 33481.91 33482.59 v -65104.23 h -33482.59 z"
       style="display:inline;fill:#eec1c1;fill-opacity:1;stroke-width:11483.1"
       id="path130" /><path
       d="m 305059.78,390625.06 v 65104.26 h 33481.9 33482.6 v -65104.26 h -33482.6 z"
       style="display:inline;fill:#eec1c1;fill-opacity:1;stroke-width:11483.1"
       id="path131" /><path
       d="m 238095.1,455728.94 v 65104.27 h 33481.91 33482.57 v -65104.27 h -33482.57 z"
       style="display:inline;fill:#eec1c1;fill-opacity:1;stroke-width:11483.1"
       id="path132" /><path
       d="M 238095.28,520833.7 V 585938 h 33481.93 33482.57 v -65104.3 h -33482.57 z"
       style="display:inline;fill:#eec1c1;fill-opacity:1;stroke-width:11483.1"
       id="path133" /><path
       d="m 305058.65,585936.81 v 65104.24 h 33481.93 33482.57 v -65104.24 h -33482.57 z"
       style="display:inline;fill:#eec1c1;fill-opacity:1;stroke-width:11483.1"
       id="path134" /><path
       d="m 372023.15,585936.81 v 65104.24 h 33481.93 33482.57 v -65104.24 h -33482.57 z"
       style="display:inline;fill:#eec1c1;fill-opacity:1;stroke-width:11483.1"
       id="path135" /><path
       d="m 438987.65,585936.81 v 65104.24 h 33481.99 33482.55 v -65104.24 h -33482.55 z"
       style="display:inline;fill:#eec1c1;fill-opacity:1;stroke-width:11483.1"
       id="path136" /><path
       d="m 505952.19,585936.81 v 65104.24 h 33481.92 33482.58 v -65104.24 h -33482.58 z"
       style="display:inline;fill:#eec1c1;fill-opacity:1;stroke-width:11483.1"
       id="path137" /><path
       d="m 1711309.4,455728.89 v 65104.32 h 33481.9 33482.7 v -65104.32 h -33482.7 z"
       style="display:inline;fill:#f7e0e0;fill-opacity:1;stroke-width:11483.1"
       id="path22" /><path
       d="m 1711309.2,520832.84 v 65104.32 h 33481.9 33482.6 v -65104.32 h -33482.6 z"
       style="display:inline;fill:#f7e0e0;fill-opacity:1;stroke-width:11483.1"
       id="path23" /><path
       d="m 1644344.7,520832.84 v 65104.32 h 33481.9 33482.6 v -65104.32 h -33482.6 z"
       style="display:inline;fill:#f7e0e0;fill-opacity:1;stroke-width:11483.1"
       id="path24" /><path
       d="m 1644344.7,455728.49 v 65104.35 h 33481.9 33482.6 v -65104.35 h -33482.6 z"
       style="display:inline;fill:#f7e0e0;fill-opacity:1;stroke-width:11483.1"
       id="path25" /><path
       d="m 1577380.9,455728.89 v 65104.32 h 33481.9 33482.6 v -65104.32 h -33482.6 z"
       style="display:inline;fill:#f7e0e0;fill-opacity:1;stroke-width:11483.1"
       id="path26" /><path
       d="m 1577380.9,520832.84 v 65104.32 h 33481.9 33482.6 v -65104.32 h -33482.6 z"
       style="display:inline;fill:#f7e0e0;fill-opacity:1;stroke-width:11483.1"
       id="path27" /><path
       d="m 1510416.5,455728.89 v 65104.32 h 33482 33482.6 v -65104.32 h -33482.6 z"
       style="display:inline;fill:#f7e0e0;fill-opacity:1;stroke-width:11483.1"
       id="path28" /><path
       d="m 1510416.5,520832.84 v 65104.32 h 33482 33482.6 v -65104.32 h -33482.6 z"
       style="display:inline;fill:#f7e0e0;fill-opacity:1;stroke-width:11483.1"
       id="path29" /><path
       d="m 1443452.3,455728.89 v 65104.32 h 33482 33482.5 v -65104.32 h -33482.5 z"
       style="display:inline;fill:#f7e0e0;fill-opacity:1;stroke-width:11483.1"
       id="path30" /><path
       d="m 1443452.3,520832.84 v 65104.32 h 33482 33482.5 v -65104.32 h -33482.5 z"
       style="display:inline;fill:#f7e0e0;fill-opacity:1;stroke-width:11483.1"
       id="path31" /><path
       d="m 1376487.8,520832.84 v 65104.32 h 33482 33482.5 v -65104.32 h -33482.5 z"
       style="display:inline;fill:#f7e0e0;fill-opacity:1;stroke-width:11483.1"
       id="path32" /><path
       d="m 1376487.8,455728.49 v 65104.35 h 33482 33482.5 v -65104.35 h -33482.5 z"
       style="display:inline;fill:#f7e0e0;fill-opacity:1;stroke-width:11483.1"
       id="path33" /><path
       d="m 1309523.8,455728.89 v 65104.32 h 33481.8 33482.6 v -65104.32 h -33482.6 z"
       style="display:inline;fill:#f7e0e0;fill-opacity:1;stroke-width:11483.1"
       id="path34" /><path
       d="m 1309523.3,520832.84 v 65104.32 h 33481.9 33482.6 v -65104.32 h -33482.6 z"
       style="display:inline;fill:#f7e0e0;fill-opacity:1;stroke-width:11483.1"
       id="path35" /><path
       d="m 1242558.8,520832.84 v 65104.32 h 33482 33482.5 v -65104.32 h -33482.5 z"
       style="display:inline;fill:#f7e0e0;fill-opacity:1;stroke-width:11483.1"
       id="path36" /><path
       d="m 1242558.8,455728.49 v 65104.35 h 33482 33482.5 v -65104.35 h -33482.5 z"
       style="display:inline;fill:#f7e0e0;fill-opacity:1;stroke-width:11483.1"
       id="path37" /><path
       d="m 1175595.4,455729.06 v 65104.31 h 33481.9 33482.6 v -65104.31 h -33482.6 z"
       style="display:inline;fill:#f7e0e0;fill-opacity:1;stroke-width:11483.1"
       id="path38" /><path
       d="m 1175595.5,520833.37 v 65104.36 h 33482 33482.6 v -65104.36 h -33482.6 z"
       style="display:inline;fill:#f7e0e0;fill-opacity:1;stroke-width:11483.1"
       id="path39" /><path
       d="m 305059.78,455729.32 v 65104.34 h 33481.9 33482.6 v -65104.34 h -33482.6 z"
       style="display:inline;fill:#f7e0e0;fill-opacity:1;stroke-width:11483.1"
       id="path138" /><path
       d="M 305059.78,520833.66 V 585938 h 33481.9 33482.6 v -65104.34 h -33482.6 z"
       style="display:inline;fill:#f7e0e0;fill-opacity:1;stroke-width:11483.1"
       id="path139" /><path
       d="m 372023.6,520833.21 v 65104.37 h 33481.92 33482.57 v -65104.37 h -33482.57 z"
       style="display:inline;fill:#f7e0e0;fill-opacity:1;stroke-width:11483.1"
       id="path140" /><path
       d="m 372023.81,455729.06 v 65104.31 h 33481.91 33482.59 v -65104.31 h -33482.59 z"
       style="display:inline;fill:#f7e0e0;fill-opacity:1;stroke-width:11483.1"
       id="path141" /><path
       d="m 438988.09,455729.06 v 65104.31 h 33481.93 33482.57 v -65104.31 h -33482.57 z"
       style="display:inline;fill:#f7e0e0;fill-opacity:1;stroke-width:11483.1"
       id="path142" /><path
       d="m 438988.09,520833.37 v 65104.36 h 33481.93 33482.57 v -65104.36 h -33482.57 z"
       style="display:inline;fill:#f7e0e0;fill-opacity:1;stroke-width:11483.1"
       id="path179" /><path
       d="m 505952.19,520833.21 v 65104.37 h 33481.92 33482.58 v -65104.37 h -33482.58 z"
       style="display:inline;fill:#f7e0e0;fill-opacity:1;stroke-width:11483.1"
       id="path180" /><path
       d="m 505952.37,455729.06 v 65104.31 h 33481.92 33482.55 v -65104.31 h -33482.55 z"
       style="display:inline;fill:#f7e0e0;fill-opacity:1;stroke-width:11483.1"
       id="path183" /><path
       d="m 974702.14,520833.21 v 65104.37 h 33481.86 33482.6 V 520833.21 H 1008184 Z"
       style="display:inline;fill:#f7e0e0;fill-opacity:1;stroke-width:11483.1"
       id="path184" /><path
       d="m 974702.4,455729.25 v 65104.33 h 33481.8 33482.6 v -65104.33 h -33482.6 z"
       style="display:inline;fill:#f7e0e0;fill-opacity:1;stroke-width:11483.1"
       id="path185" /><path
       d="m 907738.1,455729.25 v 65104.33 h 33481.93 33482.55 v -65104.33 h -33482.55 z"
       style="display:inline;fill:#f7e0e0;fill-opacity:1;stroke-width:11483.1"
       id="path187" /><path
       d="m 907738.1,520833.58 v 65104.37 h 33481.93 33482.55 v -65104.37 h -33482.55 z"
       style="display:inline;fill:#f7e0e0;fill-opacity:1;stroke-width:11483.1"
       id="path188" /><path
       d="m 840773.56,520833.21 v 65104.37 h 33481.92 33482.62 v -65104.37 h -33482.62 z"
       style="display:inline;fill:#f7e0e0;fill-opacity:1;stroke-width:11483.1"
       id="path189" /><path
       d="m 840774.18,455729.46 v 65104.32 h 33481.93 33482.59 v -65104.32 h -33482.59 z"
       style="display:inline;fill:#f7e0e0;fill-opacity:1;stroke-width:11483.1"
       id="path190" /><path
       d="m 773809.51,455729.25 v 65104.33 h 33481.92 33482.58 v -65104.33 h -33482.58 z"
       style="display:inline;fill:#f7e0e0;fill-opacity:1;stroke-width:11483.1"
       id="path191" /><path
       d="m 773809.51,520833.58 v 65104.37 h 33481.92 33482.58 v -65104.37 h -33482.58 z"
       style="display:inline;fill:#f7e0e0;fill-opacity:1;stroke-width:11483.1"
       id="path192" /><path
       d="m 706845.01,520833.21 v 65104.37 h 33481.93 33482.57 v -65104.37 h -33482.57 z"
       style="display:inline;fill:#f7e0e0;fill-opacity:1;stroke-width:11483.1"
       id="path193" /><path
       d="m 706845.21,455729.25 v 65104.33 h 33481.93 33482.57 v -65104.33 h -33482.57 z"
       style="display:inline;fill:#f7e0e0;fill-opacity:1;stroke-width:11483.1"
       id="path202" /><path
       d="m 639880.98,455729.25 v 65104.33 h 33481.93 33482.57 v -65104.33 h -33482.57 z"
       style="display:inline;fill:#f7e0e0;fill-opacity:1;stroke-width:11483.1"
       id="path203" /><path
       d="m 639880.98,520833.58 v 65104.37 h 33481.93 33482.57 v -65104.37 h -33482.57 z"
       style="display:inline;fill:#f7e0e0;fill-opacity:1;stroke-width:11483.1"
       id="path204" /><path
       d="m 572916.84,455729.02 v 65104.32 h 33481.97 33482.53 v -65104.32 h -33482.53 z"
       style="display:inline;fill:#f7e0e0;fill-opacity:1;stroke-width:11483.1"
       id="path205" /><path
       d="m 572916.84,520833.34 v 65104.33 h 33481.97 33482.53 v -65104.33 h -33482.53 z"
       style="display:inline;fill:#f7e0e0;fill-opacity:1;stroke-width:11483.1"
       id="path206" /><path
       d="m 1041666.4,455728.89 v 65104.32 h 33481.9 33482.6 v -65104.32 h -33482.6 z"
       style="display:inline;fill:#f7e0e0;fill-opacity:1;stroke-width:11483.1"
       id="path207" /><path
       d="m 1108630.7,455729.69 v 65104.32 h 33481.9 33482.5 v -65104.32 h -33482.5 z"
       style="display:inline;fill:#f7e0e0;fill-opacity:1;stroke-width:11483.1"
       id="path208" /><path
       d="m 1108631.1,520833.37 v 65104.36 h 33482 33482.4 v -65104.36 h -33482.4 z"
       style="display:inline;fill:#f7e0e0;fill-opacity:1;stroke-width:11483.1"
       id="path209" /><path
       d="m 1041666.6,520833.37 v 65104.36 h 33481.9 33482.6 v -65104.36 h -33482.6 z"
       style="display:inline;fill:#f7e0e0;fill-opacity:1;stroke-width:11483.1"
       id="path50-8-0-4-2-3-39" /></g></svg>
